<?xml version="1.0" encoding="utf-8"?>
<!-- Generator: Adobe Illustrator 15.0.2, SVG Export Plug-In . SVG Version: 6.00 Build 0)  -->
<!DOCTYPE svg PUBLIC "-//W3C//DTD SVG 1.1//EN" "http://www.w3.org/Graphics/SVG/1.1/DTD/svg11.dtd">
<svg version="1.1" id="Ebene_1" xmlns="http://www.w3.org/2000/svg" xmlns:xlink="http://www.w3.org/1999/xlink" x="0px" y="0px"
	 width="300.001px" height="300px" viewBox="0 0 300.001 300" enable-background="new 0 0 300.001 300" xml:space="preserve">
<g>
	<rect fill="#FFCE00" width="300.001" height="300"/>
	<g>
		<g>
			<path d="M86.092,141.451c-0.706,0.52-1.357,0.941-1.943,1.438c-5.072,4.304-9.832,8.934-14.35,13.813
				c-0.564,0.605-0.69,1.135-0.38,1.906c0.52,1.306,0.232,1.857-1.069,2.493c-0.198,0.094-0.391,0.295-0.488,0.496
				c-0.774,1.597-2.059,2.543-3.802,2.587c-1.973,0.05-3.976,0.043-5.917-0.253c-1.999-0.308-2.764-1.89-1.824-3.687
				c0.769-1.468,1.719-2.902,2.857-4.1c2.482-2.606,5.095-5.091,7.72-7.553c4.417-4.14,8.884-8.228,13.334-12.331
				c1.809-1.667,3.805-2.974,6.312-3.353c2.465-0.373,4.253,0.375,5.488,2.551c0.84,1.481,1.568,3.033,2.268,4.587
				c0.874,1.941,2.557,3.035,4.258,4.362c0.335-1.902,0.643-3.648,0.951-5.394c-0.059-0.031-0.117-0.062-0.174-0.092
				c-0.673,0.701-1.344,1.404-2.016,2.105c-0.047-0.036-0.093-0.071-0.138-0.107c0.94-1.583,1.88-3.166,2.822-4.748
				c0.95-1.595,1.9-3.19,2.753-4.894c-0.38,0.301-0.761,0.604-1.141,0.906c-0.083-0.064-0.166-0.129-0.248-0.193
				c1.496-2.27,2.992-4.541,4.375-6.637c-0.395,0.165-1.06,0.445-1.723,0.723c-0.025-0.05-0.05-0.098-0.075-0.148
				c1.851-1.034,3.688-2.09,5.559-3.087c0.625-0.333,0.955-0.748,1.117-1.453c0.735-3.17,1.534-6.325,2.31-9.485
				c-0.101,0.033-0.2,0.065-0.3,0.099c-0.362-0.736-0.915-1.442-1.039-2.216c-0.144-0.918,0.315-1.765,1.249-2.193
				c0.84-0.385,1.668-0.318,2.335,0.329c0.744,0.723,1.146,1.764,0.666,2.631c-0.558,1.004-0.26,1.831-0.043,2.741
				c0.136,0.567,0.303,1.127,0.485,1.795c0.287-0.202,0.51-0.339,0.711-0.505c4.109-3.409,8.211-6.828,12.337-10.218
				c0.305-0.252,0.765-0.371,1.172-0.439c1.988-0.329,3.986-0.598,5.973-0.931c1.685-0.282,2.976-1.173,3.871-2.643
				c1.487-2.436,3.016-4.848,4.466-7.306c0.488-0.828,1.103-1.207,2.039-1.151c0.526,0.031,1.056,0.041,1.582,0.016
				c1.255-0.06,2.227,0.217,3.173,1.264c0.71,0.783,2.025,1.076,3.121,1.424c0.469,0.147,0.742,0.138,0.771,0.735
				c0.557,11.097-2.932,20.913-9.562,29.661c-1.462,1.932-3.442,3.472-5.198,5.18c-0.416,0.405-0.879,0.763-1.259,1.317
				c2.657-0.243,5.313-0.486,8.02-0.733c0.017-0.329,0.027-0.604,0.049-0.875c0.109-1.318,1.172-2.276,2.418-2.182
				c1.355,0.103,2.406,1.426,2.234,2.815c-0.154,1.263-1.305,2.201-2.602,1.9c-0.788-0.181-1.276,0.075-1.846,0.479
				c-2.678,1.909-5.367,3.809-8.072,5.681c-0.481,0.334-0.586,0.655-0.495,1.229c0.406,2.613,1.479,4.897,3.1,6.979
				c2.641,3.388,5.751,6.254,9.312,8.64c7.638,5.122,15.078,10.492,21.921,16.667c5.069,4.576,9.695,9.534,13.737,15.031
				c2.403,3.268,4.546,6.696,5.172,10.81c0.308,2.021,0.342,4.087,0.675,6.104c0.259,1.576,0.69,3.143,1.219,4.652
				c0.534,1.512,1.843,2.455,3,3.496c0.303,0.271,0.683,0.931,0.565,1.1c-0.235,0.345-0.797,0.69-1.199,0.663
				c-2.125-0.156-4.265-0.315-6.36-0.693c-1.952-0.35-3.156-1.673-3.203-3.691c-0.062-2.564,0.077-5.135,0.119-7.704
				c0.015-0.792,0.375-1.626-0.325-2.654c-0.159,0.571-0.317,0.894-0.325,1.217c-0.064,3.615-1.397,6.676-3.562,9.578
				c-3.727,4.996-5.646,10.79-6.656,16.898c-0.325,1.971,0.142,3.843,1.102,5.563c1.455,2.603,3.017,5.14,5.326,7.111
				c1.613,1.375,1.847,3.15,1.425,5.092c-0.767,3.516-1.745,6.996-2.281,10.548c-0.69,4.563-1.048,9.179-1.522,13.774
				c-0.111,1.08-0.171,2.17-0.158,3.253c0.007,0.64,0.153,1.291,0.33,1.909c0.25,0.876,0.404,1.715-0.325,2.431
				c-0.703,0.689-1.522,0.561-2.347,0.248c-0.139-0.055-0.283-0.097-0.467-0.156c-0.605,1.156-1.199,2.271-1.777,3.398
				c-0.946,1.848-2.498,2.478-4.484,2.257c-0.834-0.092-1.673-0.137-2.5-0.268c-1.969-0.315-2.788-1.616-2.152-3.501
				c0.938-2.788,2.597-5.087,5.013-6.771c0.896-0.623,1.266-1.316,1.336-2.408c0.477-7.434,1.016-14.862,1.562-22.292
				c0.097-1.291-0.271-2.383-1.058-3.369c-2.403-3.004-4.819-6.001-7.218-9.01c-4.02-5.043-6.73-10.693-7.823-17.076
				c-0.154-0.885-0.208-1.788-0.268-2.687c-0.478-7.15-0.946-14.301-1.405-21.454c-0.062-0.961-0.107-1.924-0.085-2.883
				c0.022-0.891-0.34-1.187-1.194-0.958c0,1.14-0.005,2.279,0.003,3.419c0.002,0.713,0.052,1.428,0.029,2.14
				c-0.047,1.567-1.243,2.277-2.629,1.547c-1.73-0.913-3.401-1.941-5.168-2.773c-2.69-1.266-5.374-2.602-8.18-3.564
				c-7.103-2.441-13.378-6.195-18.915-11.235c-0.225-0.203-0.468-0.387-0.983-0.523c0.12,1.413,0.237,2.828,0.366,4.348
				c-3.863-3.076-8.042-5.745-11.056-9.78c-0.064,0.058-0.129,0.112-0.193,0.167c0.577,0.839,1.154,1.678,1.733,2.518
				c-0.071,0.049-0.142,0.104-0.211,0.158c-1.839-2.058-3.679-4.116-5.563-6.222c0,1.185,0,2.314,0,3.392
				c-1.494-1.47-2.077-5.018-1.389-9.032c0.783,0.451,1.544,0.839,2.255,1.304c2.515,1.65,5.003,3.344,7.523,4.987
				c1.959,1.276,2.761,1.252,4.425-0.382c0.823-0.81,1.635-1.793,2.018-2.851c0.675-1.882,1.042-3.878,1.486-5.837
				c0.164-0.723-0.06-1.388-0.714-1.969c-0.268,1.613-0.524,3.133-0.769,4.652c-0.242,1.5-0.825,2.853-1.742,4.064
				c-1.28,1.693-2.693,2.07-4.541,1.058c-1.303-0.715-2.507-1.606-3.776-2.386c-5.422-3.319-10.842-6.646-16.292-9.924
				c-0.894-0.539-1.909-0.894-2.901-1.239c-1.145-0.402-1.321-0.312-1.455,0.864c-0.226,1.972-0.467,3.953-0.482,5.932
				c-0.024,3.071,0.171,6.143,0.2,9.214c0.011,1.251,0.515,2.122,1.541,2.766c0.207,0.129,0.402,0.295,0.562,0.481
				c0.622,0.725,0.555,1.788-0.256,2.274c-0.547,0.327-0.633,0.695-0.666,1.261c-0.046,0.76,0.222,1.062,0.957,1.271
				c1.614,0.457,2.217,1.832,1.242,3.173c-1.197,1.639-2.52,3.24-4.032,4.583c-1.772,1.579-3.605,0.899-4.203-1.415
				c-0.324-1.251-0.397-2.569-0.615-3.854c-0.053-0.314-0.148-0.717-0.37-0.894c-0.946-0.747-1.237-1.728-1.252-2.872
				c-0.082-6.828-0.196-13.658-0.256-20.485c-0.02-2.202,0.065-4.407,0.149-6.609c0.144-3.687,3.636-6.321,7.232-5.375
				c1.148,0.302,2.287,0.826,3.291,1.465c4.66,2.967,9.271,6.011,13.9,9.028c0.281,0.181,0.566,0.354,1.092,0.688
				c0.27-0.889,0.79-1.701,0.689-2.426c-0.5-3.605,1.489-5.923,3.897-8.074c0.162-0.144,0.337-0.273,0.504-0.411
				c0.021-0.018,0.03-0.051,0.084-0.151c-0.804-0.236-1.447,0.061-2.006,0.536c-1.51,1.285-2.769,2.762-3.394,4.69
				c-0.191,0.591-0.356,1.188-0.554,1.776c-0.431,1.289-1.472,1.703-2.638,0.99c-1.905-1.164-3.777-2.388-5.675-3.57
				c-2.475-1.542-4.956-3.081-7.448-4.597c-1.518-0.922-2.769-2.088-3.598-3.678C86.535,142.027,86.349,141.817,86.092,141.451z
				 M114.698,112.05c-0.796-0.183-1.073,0.112-1.224,0.799c-0.435,1.968-0.926,3.925-1.455,5.872
				c-0.169,0.621-0.049,0.921,0.514,1.251c9.288,5.452,18.564,10.924,27.832,16.409c0.466,0.277,0.782,0.288,1.228-0.035
				c1.883-1.367,3.797-2.694,5.697-4.038c0.236-0.167,0.458-0.351,0.686-0.527c-0.401-0.216-0.724-0.241-1.042-0.212
				c-2.688,0.238-5.375,0.489-8.064,0.731c-1.122,0.102-1.204,0.03-1.255-1.12c-0.084-1.859-0.165-3.719-0.242-5.58
				c-0.042-1.026-0.487-1.355-1.504-1.083c-2.428,0.646-4.859,1.283-7.28,1.961c-0.608,0.17-0.839,0.035-0.915-0.596
				c-0.213-1.786-0.506-3.564-0.701-5.353c-0.129-1.172-0.135-2.281-1.643-2.677c-0.507-0.133-0.853-0.25-1.339-0.009
				c-1.892,0.935-3.801,1.831-5.705,2.74c-1.107,0.53-1.251,0.461-1.571-0.766C116.043,117.236,115.373,114.656,114.698,112.05z
				 M140.304,137.079c-9.508-5.595-19.023-11.193-28.556-16.803c-0.725,1.845-0.725,1.846,0.831,2.757
				c8.239,4.826,16.479,9.651,24.72,14.476c1.537,0.901,1.537,0.901,2.922-0.262C140.241,137.23,140.247,137.195,140.304,137.079z
				 M126.858,114.084c-1.141-0.026-1.884,0.634-1.911,1.698c-0.024,1.03,0.796,1.83,1.911,1.858
				c0.868,0.022,1.626-0.799,1.656-1.792C128.543,114.885,127.813,114.105,126.858,114.084z M139.987,122.691
				c-0.02-0.957-0.829-1.771-1.713-1.727c-0.885,0.046-1.537,0.717-1.512,1.561c0.027,1.02,0.688,1.79,1.522,1.777
				C139.234,124.288,140.007,123.556,139.987,122.691z M148.277,130.138c0.007,1,0.633,1.61,1.645,1.604
				c0.868-0.005,1.58-0.696,1.561-1.517c-0.021-0.971-0.797-1.775-1.693-1.756C148.918,128.486,148.269,129.204,148.277,130.138z
				 M113.794,108.113c-0.795-0.016-1.455,0.693-1.487,1.6c-0.03,0.884,0.657,1.542,1.617,1.547c0.737,0.004,1.273-0.525,1.305-1.287
				C115.269,108.969,114.622,108.131,113.794,108.113z"/>
			<path d="M160.935,67.364c-0.869-6.249-3.136-11.767-7.198-16.506c-0.272-0.316-0.31-0.835-0.456-1.261
				c0.419,0.153,0.916,0.211,1.243,0.477c0.842,0.683,1.606,1.462,2.406,2.195c2.724,2.489,4.646,5.474,5.66,9.033
				c0.552,1.934,1.135,3.858,1.746,5.932c1.271,0.071,2.716,0.169,4.161,0.212c0.235,0.007,0.514-0.187,0.71-0.356
				c0.633-0.549,1.229-1.141,1.856-1.694c2.936-2.577,3.63-5.785,2.968-9.537c-0.974-5.486-3.374-10.28-6.637-14.71
				c-0.32-0.435-1.056-0.936-0.425-1.495c0.681-0.604,1.1,0.226,1.49,0.625c3.482,3.558,6.445,7.463,8.104,12.238
				c1.114,3.21,1.539,6.5,1.37,9.894c-0.094,1.879-0.018,3.766-0.018,5.725c1.981,0.216,4.035,0.441,6.212,0.678
				c0-1.193,0.018-2.303-0.005-3.411c-0.042-2.042,0.808-3.8,1.738-5.529c0.484-0.901,0.958-1.818,1.547-2.651
				c0.203-0.293,0.735-0.359,1.114-0.529c0.103,0.38,0.351,0.79,0.281,1.137c-0.422,2.191-1.008,4.353-1.349,6.555
				c-0.216,1.396-0.124,2.845-0.116,4.271c0,0.234,0.226,0.633,0.412,0.675c2.597,0.597,5.204,1.146,7.93,1.733
				c0.692-3.781,1.271-7.505-0.829-11.044c-0.71-1.201-1.465-2.379-2.247-3.533c-0.251-0.373-0.638-0.669-1-0.95
				c-1.498-1.159-3.021-2.283-4.504-3.459c-0.246-0.195-0.33-0.589-0.489-0.89c0.357-0.03,0.757-0.18,1.065-0.07
				c1.98,0.719,3.938,1.507,5.913,2.245c1.202,0.451,2.371,0.325,3.499-0.303c1.726-0.958,2.286-2.873,1.378-4.606
				c-1.724-3.29-4.312-5.899-6.714-8.66c-0.61-0.703-1.259-1.377-1.822-2.113c-0.188-0.244-0.171-0.645-0.246-0.974
				c0.355,0.022,0.803-0.085,1.058,0.088c2.028,1.379,4,2.836,6.036,4.206c0.377,0.256,0.973,0.373,1.43,0.299
				c1.632-0.261,3.049-1.007,4.251-2.155c0.774-0.741,1.137-1.631,0.901-2.694c-0.683-3.078-1.637-6.105-3.322-8.747
				c-0.974-1.521-2.629-2.604-3.982-3.88c-0.248-0.233-0.568-0.407-0.768-0.674c-0.136-0.185-0.126-0.48-0.184-0.728
				c0.249-0.038,0.494-0.101,0.742-0.106c0.107-0.001,0.222,0.104,0.32,0.179c2.828,2.168,5.726,4.253,8.464,6.532
				c3.456,2.881,5.17,6.725,5.703,11.159c0.708,5.845,0.549,11.662-0.604,17.423c-0.804,4.021-2.69,7.585-5.211,10.808
				c-0.898,1.147-1.837,2.261-2.793,3.433c0.565,0.402,0.906,0.169,1.298-0.287c3.258-3.775,5.939-7.95,8.551-12.18
				c1.222-1.98,2.521-3.915,3.787-5.868c0.31-0.479,0.65-1.024,1.323-0.626c0.662,0.393,0.367,0.947,0.108,1.466
				c-1.37,2.75-2.766,5.487-4.091,8.258c-0.879,1.833-0.688,3.83-0.591,5.772c0.037,0.717,0.561,1.182,1.439,1.308
				c4.013,0.581,8.456-2.486,9.397-6.386c0.903-3.741,0.876-7.201-0.956-10.637c-0.829-1.556-1.47-3.216-2.115-4.86
				c-0.129-0.328,0.109-0.799,0.179-1.205c0.33,0.209,0.755,0.35,0.979,0.643c1.204,1.577,2.276,3.256,3.545,4.775
				c1.778,2.123,5.701,2.222,7.699,0.287c0.966-0.935,1.14-2.199,1.194-3.438c0.132-3.011-1.154-5.536-3.158-7.611
				c-2.155-2.229-4.543-4.232-6.827-6.333c-0.182-0.167-0.433-0.316-0.512-0.527c-0.095-0.253-0.134-0.618-0.013-0.827
				c0.09-0.152,0.489-0.197,0.732-0.164c0.227,0.032,0.435,0.221,0.646,0.353c2.076,1.305,4.149,2.616,6.228,3.917
				c1.312,0.823,2.991,0.741,4.163-0.264c1.661-1.428,2.516-3.213,2.163-5.444c-0.318-1.999-0.777-3.934-1.965-5.657
				c-1.71-2.478-3.314-5.025-4.963-7.544c-0.137-0.208-0.311-0.405-0.382-0.633c-0.042-0.137,0.039-0.361,0.144-0.474
				c0.06-0.064,0.311-0.032,0.415,0.041c0.198,0.142,0.365,0.335,0.526,0.521c2.048,2.374,4.005,4.831,6.154,7.109
				c4.231,4.48,6.342,9.832,7.029,15.873c1.125,9.82-1.944,18.035-9.273,24.656c-3.111,2.813-6.632,4.997-10.442,6.74
				c-6.026,2.756-12.322,3.688-18.895,2.925c-2.125-0.249-4.26-0.441-6.396-0.607c-0.393-0.031-0.847,0.112-1.201,0.304
				c-1.117,0.609-2.205,1.27-3.293,1.929c-4.285,2.6-8.928,3.29-13.873,2.895c-7.95-0.632-15.915-1.104-23.877-1.582
				c-1.254-0.075-2.538,0.115-3.791,0.299c-1.53,0.225-2.583,1.235-3.655,2.522c2.389,0.532,3.781,2.278,5.391,3.766
				c0.68,0.628,1.616,1.05,2.505,1.368c1.753,0.625,3.545,1.129,5.333,1.647c0.816,0.236,1.442,0.618,1.502,1.538
				c0.055,0.869-0.447,1.33-1.212,1.665c-1.562,0.685-3.065,1.502-4.64,2.155c-2.761,1.147-5.306,0.309-6.984-2.167
				c-0.18-0.266-0.549-0.538-0.852-0.563c-1.482-0.129-2.973-0.213-4.461-0.219c-0.295-0.001-0.678,0.361-0.872,0.654
				c-1.527,2.302-3.086,4.586-4.499,6.957c-1.631,2.736-4.034,3.972-7.125,4.205c-2.629,0.197-5.286,0.334-7.863,0.843
				c-2.942,0.581-5.81,1.542-8.71,2.341c-0.479,0.131-0.953,0.278-1.433,0.408c-0.861,0.235-1.608,0.083-2.123-0.708
				c-0.47-0.727-0.337-1.473,0.37-2.284c0.355-0.406,0.706-0.816,1.06-1.224c-0.052-0.064-0.102-0.129-0.154-0.192
				c-1.077,0.433-2.137,0.917-3.236,1.282c-0.721,0.238-1.506,0.441-2.254,0.419c-1.878-0.054-3.264-1.316-3.399-3.179
				c-0.086-1.186-0.006-2.427,0.257-3.584c0.365-1.598,1.524-2.416,3.158-2.561c0.032-0.004,0.063-0.01,0.093-0.006
				c3.172,0.422,5.772-1.048,8.391-2.504c4.258-2.367,8.541-4.694,12.805-7.047c3.685-2.033,7.562-3.44,11.886-3.631
				c-0.273-1.061-0.725-1.901-1.642-2.417c-2.328-1.306-4.709-2.525-6.982-3.915c-2.459-1.505-4.85-3.126-7.22-4.77
				c-2.93-2.031-4.296-5.145-5.524-8.324c-0.074-0.192,0.088-0.477,0.141-0.719c0.218,0.132,0.501,0.214,0.64,0.404
				c0.442,0.598,0.832,1.235,1.242,1.858c1.624,2.47,3.798,4.285,6.425,5.649c3.771,1.96,7.491,4.021,11.215,6.069
				c2.481,1.364,2.468,1.388,4.705,4.492c0.141-0.762,0.325-1.471,0.377-2.191c0.018-0.252-0.236-0.586-0.454-0.786
				c-2.316-2.113-4.763-4.095-6.942-6.34c-1.673-1.724-3.133-3.692-4.477-5.693c-2.245-3.347-2.453-7.225-2.478-11.101
				c-0.003-0.244,0.357-0.488,0.548-0.731c0.224,0.245,0.585,0.458,0.653,0.74c0.362,1.507,0.495,3.087,1.005,4.535
				c0.593,1.68,1.249,3.436,2.309,4.832c3.28,4.32,7.376,7.856,11.438,11.292C151.329,70.546,155.738,68.098,160.935,67.364z
				 M165.541,70.504c0.275,1.604,0.556,3.003,0.737,4.413c0.097,0.763,0.412,1.004,1.177,1.047
				c4.238,0.241,8.474,0.546,12.709,0.819c1.316,0.084,2.635,0.138,4.052,0.211c-0.163-1.495-0.364-2.811-0.429-4.135
				c-0.037-0.74-0.341-0.922-1.006-0.978c-4.106-0.338-8.211-0.723-12.317-1.066C168.867,70.681,167.266,70.612,165.541,70.504z
				 M148.886,77.025c3.953-2.515,8.168-1.634,12.397-1.542c0-1.66,0-3.249,0-4.84C157.695,70.67,149.879,74.6,148.886,77.025z
				 M137.5,89.708c0-1.291-1.207-2.323-2.751-2.353c-1.509-0.031-2.589,1.14-2.578,2.796c0.009,1.414,1.266,2.609,2.737,2.603
				C136.397,92.748,137.497,91.455,137.5,89.708z M193.387,74.161c-0.03-0.118-0.06-0.236-0.092-0.354
				c-2.083-0.453-4.166-0.905-6.373-1.384c0.176,1.516,0.325,2.812,0.506,4.369C189.543,75.859,191.465,75.01,193.387,74.161z"/>
			<path d="M130.372,235.116c-0.78-0.071-1.321,0.214-1.723,0.934c-1.104,1.975-2.006,2.485-4.181,1.969
				c-1.795-0.429-3.599-1.005-5.243-1.824c-2.389-1.189-2.555-3.29-0.445-4.953c2.645-2.081,5.666-3.303,9.08-3.401
				c4.312-0.129,8.623-0.281,12.936-0.368c2.522-0.049,4.916-0.63,7.236-1.554c1.359-0.539,1.508-0.77,1.027-2.175
				c-0.355-1.04-0.854-2.065-1.462-2.979c-2.516-3.784-4.54-7.783-5.264-12.31c-0.679-4.246-0.754-8.467,1.082-12.519
				c0.804-1.777,1.781-2.209,3.524-1.304c2.174,1.13,4.317,2.319,6.468,3.489c1.618,0.884,2.539,2.194,2.651,4.086
				c0.263,4.43,0.484,8.864,0.898,13.278c0.303,3.208,0.867,6.391,1.371,9.573c0.076,0.481,0.387,0.983,0.725,1.354
				c1.001,1.095,1.251,2.324,0.849,3.712c-0.401,1.383-1.399,2.101-2.777,2.269c-3.971,0.482-7.948,0.944-11.924,1.381
				c-3.147,0.345-6.294,0.678-9.448,0.938c-1.155,0.095-1.728,0.805-2.324,1.626c-0.814,1.125-2.274,1.105-2.8-0.027
				C130.463,235.963,130.456,235.541,130.372,235.116z"/>
			<path d="M126.248,78.413c0.437-1.181,0.851-2.372,1.326-3.538c0.206-0.51,0.635-0.591,1.04-0.193
				c0.231,0.227,0.512,0.52,0.551,0.812c0.402,2.952,0.955,2.375,3.046,2.627c1.075,0.129,2.165,0.123,3.239,0.263
				c0.824,0.107,1.58,1.594,1.238,2.344c-0.061,0.134-0.269,0.248-0.429,0.286c-2.244,0.526-4.453,1.12-6.231,2.725
				c-0.11,0.101-0.463,0.035-0.647-0.062C127.3,82.572,126.417,80.78,126.248,78.413z"/>
			<path fill="#FFDE55" d="M114.698,112.05c0.675,2.606,1.346,5.187,2.017,7.768c0.319,1.227,0.463,1.296,1.571,0.766
				c1.904-0.909,3.813-1.805,5.705-2.74c0.487-0.241,0.832-0.124,1.339,0.009c1.507,0.396,1.514,1.505,1.643,2.677
				c0.195,1.789,0.488,3.566,0.701,5.353c0.076,0.631,0.307,0.766,0.915,0.596c2.421-0.678,4.852-1.315,7.28-1.961
				c1.018-0.272,1.462,0.057,1.504,1.083c0.077,1.861,0.158,3.721,0.242,5.58c0.051,1.149,0.133,1.222,1.255,1.12
				c2.689-0.242,5.376-0.493,8.064-0.731c0.318-0.029,0.641-0.004,1.042,0.212c-0.228,0.176-0.45,0.361-0.686,0.527
				c-1.899,1.344-3.814,2.671-5.697,4.038c-0.446,0.323-0.762,0.312-1.228,0.035c-9.268-5.485-18.544-10.957-27.832-16.409
				c-0.562-0.331-0.683-0.631-0.514-1.251c0.529-1.947,1.02-3.904,1.455-5.872C113.625,112.162,113.902,111.867,114.698,112.05z"/>
			<path fill="#FFDE55" d="M140.304,137.079c-0.057,0.117-0.063,0.152-0.083,0.168c-1.385,1.163-1.385,1.163-2.922,0.262
				c-8.24-4.825-16.48-9.65-24.72-14.476c-1.555-0.911-1.555-0.912-0.831-2.757C121.281,125.885,130.796,131.484,140.304,137.079z"
				/>
			<path fill="#FFDE55" d="M126.858,114.084c0.955,0.021,1.685,0.801,1.656,1.765c-0.03,0.992-0.789,1.814-1.656,1.792
				c-1.115-0.029-1.935-0.828-1.911-1.858C124.974,114.719,125.718,114.059,126.858,114.084z"/>
			<path fill="#FFDE55" d="M139.987,122.691c0.02,0.865-0.753,1.597-1.703,1.611c-0.834,0.013-1.495-0.757-1.522-1.777
				c-0.025-0.843,0.627-1.515,1.512-1.561C139.158,120.919,139.968,121.734,139.987,122.691z"/>
			<path fill="#FFDE55" d="M148.277,130.138c-0.009-0.935,0.641-1.652,1.512-1.669c0.896-0.019,1.673,0.786,1.693,1.756
				c0.02,0.821-0.692,1.512-1.561,1.517C148.911,131.748,148.285,131.138,148.277,130.138z"/>
			<path fill="#FFDE55" d="M113.794,108.113c0.828,0.018,1.475,0.855,1.434,1.86c-0.031,0.762-0.567,1.291-1.305,1.287
				c-0.96-0.005-1.646-0.663-1.617-1.547C112.339,108.806,112.999,108.097,113.794,108.113z"/>
			<path d="M136.405,89.838c-0.015,0.872-0.771,1.58-1.639,1.54c-0.843-0.04-1.501-0.74-1.49-1.585
				c0.013-0.888,0.734-1.563,1.629-1.526C135.752,88.3,136.419,89.003,136.405,89.838z"/>
		</g>
	</g>
</g>
</svg>
