<?xml version="1.0" encoding="utf-8"?>
<!-- Generator: Adobe Illustrator 15.0.2, SVG Export Plug-In . SVG Version: 6.00 Build 0)  -->
<!DOCTYPE svg PUBLIC "-//W3C//DTD SVG 1.1//EN" "http://www.w3.org/Graphics/SVG/1.1/DTD/svg11.dtd">
<svg version="1.1" id="Ebene_1" xmlns="http://www.w3.org/2000/svg" xmlns:xlink="http://www.w3.org/1999/xlink" x="0px" y="0px"
	 width="300px" height="300px" viewBox="0 0 300 300" enable-background="new 0 0 300 300" xml:space="preserve">
<g>
	<rect fill="#E29D2E" width="300" height="300"/>
	<g>
		<g>
			<g>
				<g>
					<path fill="#A41E21" d="M149.892,99.368c2,0,3.969,0.138,5.896,0.4c0.269-0.239,0.547-0.491,0.83-0.754l-7.244-59.057
						l-6.834,60.033C144.932,99.583,147.387,99.368,149.892,99.368z"/>
				</g>
				<g>
					<path fill="#A41E20" d="M164.17,101.77c0.679-0.895,1.517-1.875,2.376-2.881c1.477-1.726,3.002-3.51,3.856-5.021
						c1.261-2.227,1.504-7.875,1.7-12.415c0.111-2.54,0.206-4.733,0.45-5.977c0.484-2.467,5.71-9.115,5.934-9.396
						c0.053-0.068,0.149-0.082,0.219-0.031s0.087,0.146,0.04,0.219c-2.257,3.4-4.908,8.13-5.079,8.728
						c-0.284,0.963-0.567,6.042-0.815,10.522c-0.211,3.777-0.393,7.039-0.557,7.805c-0.36,1.686-2.87,5.069-4.093,6.26
						c-0.582,0.568-1.483,1.803-2.217,2.863c2.557,1.018,4.992,2.27,7.286,3.731c1.688-3.114,4.645-8.646,5.293-10.361
						c0.584-1.542,0.602-9.648,0.616-15.567c0.008-3.255,0.013-6.066,0.107-7.182c0.224-2.647,4.828-9.562,7.303-13.279
						c0.584-0.88,1.047-1.574,1.23-1.885c0.537-0.911,1.683-9.575,2.505-16.652c-1.847,4.799-5.024,13.009-5.932,15.001
						c-0.822,1.8-4.429,4.489-7.915,7.088c-2.222,1.658-4.324,3.224-5.353,4.314c-0.962,1.019-3.256,5.5-7.791,24.042
						c-0.594,2.426-3.282,5.408-5.703,7.695l0.085,0.683C159.931,100.475,162.085,101.046,164.17,101.77z"/>
				</g>
				<g>
					<path fill="#A41E20" d="M125.424,106.891c1.778-1.209,3.648-2.29,5.602-3.229c-0.199-1.189-0.331-2.611-0.464-4.073
						c-0.208-2.261-0.42-4.6-0.906-6.265c-0.715-2.457-4.592-6.573-7.706-9.88c-1.743-1.853-3.248-3.45-3.968-4.494
						c-1.429-2.067-2.545-10.45-2.592-10.805c-0.01-0.086,0.047-0.164,0.131-0.179c0.086-0.015,0.167,0.04,0.184,0.125
						c0.862,3.987,2.4,9.188,2.708,9.729c0.496,0.873,3.935,4.619,6.969,7.924c2.558,2.787,4.766,5.193,5.202,5.846
						c0.958,1.437,1.629,5.594,1.629,7.299c0,0.899,0.313,2.643,0.582,3.972c2.5-1.07,5.122-1.91,7.835-2.499
						c-1.009-3.253-3.069-9.776-3.885-11.524c-0.697-1.494-6.491-7.165-10.722-11.304c-2.326-2.276-4.336-4.242-5.068-5.089
						c-1.74-2.006-3.481-10.13-4.417-14.494c-0.221-1.035-0.396-1.852-0.491-2.198c-0.277-1.021-5.685-7.887-10.181-13.415
						c2.151,4.672,5.813,12.677,6.606,14.716c0.717,1.845,0.126,6.304-0.445,10.616c-0.363,2.75-0.707,5.347-0.645,6.844
						c0.059,1.401,1.667,6.17,11.785,22.358c1.32,2.111,1.582,6.102,1.533,9.424L125.424,106.891z"/>
				</g>
				<g>
					<path fill="#A41E20" d="M73.659,114.571c3.396,2.263,8.119,4.925,8.715,5.099c0.964,0.282,6.041,0.578,10.521,0.837
						c3.776,0.22,7.036,0.409,7.803,0.574c1.687,0.364,5.064,2.881,6.251,4.105c0.475,0.49,1.415,1.203,2.331,1.853
						c1-2.536,2.233-4.955,3.672-7.235c-3.178-1.725-8.14-4.375-9.748-4.987c-1.54-0.586-9.646-0.623-15.565-0.65
						c-3.255-0.015-6.067-0.027-7.182-0.125c-2.646-0.229-9.553-4.849-13.263-7.331c-0.878-0.589-1.573-1.052-1.882-1.235
						c-0.909-0.54-9.571-1.705-16.648-2.542c4.796,1.856,13,5.053,14.99,5.965c1.799,0.825,4.479,4.437,7.071,7.93
						c1.654,2.227,3.215,4.33,4.302,5.361c1.018,0.967,5.493,3.269,24.024,7.845c1.998,0.495,4.374,2.413,6.424,4.428l0.393,0.973
						c-0.032-0.116,1.23,0.187,1.23,0c0,0.187,0.033-1.143,0.033-1.143c0.38-1.868,0.881-3.693,1.491-5.466
						c-0.75-0.599-1.551-1.285-2.368-1.988c-1.722-1.479-3.504-3.009-5.012-3.867c-2.224-1.265-7.871-1.521-12.41-1.728
						c-2.54-0.116-4.734-0.215-5.978-0.462c-2.464-0.489-9.102-5.73-9.383-5.953c-0.067-0.055-0.081-0.152-0.03-0.22
						C73.49,114.542,73.586,114.524,73.659,114.571z"/>
				</g>
				<g>
					<path fill="#A41E20" d="M123.675,108.145c0.022-0.446,0.04-0.919,0.05-1.409L70.658,62.955l43.895,54.483
						C117.116,113.906,120.192,110.771,123.675,108.145z"/>
				</g>
				<g>
					<path fill="#A41E20" d="M189.18,124.025c0.566-0.044,1.15-0.084,1.744-0.126c2.267-0.155,4.61-0.316,6.285-0.766
						c2.47-0.661,6.672-4.443,10.049-7.482c1.889-1.701,3.521-3.171,4.583-3.868c2.097-1.382,10.501-2.31,10.859-2.349
						c0.079-0.009,0.164,0.051,0.176,0.136c0.013,0.085-0.044,0.165-0.129,0.181c-4.006,0.773-9.239,2.194-9.788,2.489
						c-0.883,0.475-4.704,3.83-8.076,6.791c-2.844,2.495-5.299,4.649-5.96,5.069c-1.495,0.951-5.523,1.467-7.177,1.467l0,0
						c-0.054,0-0.106,0-0.158-0.001l-0.098-0.001c-0.402,0-0.951,0.051-1.548,0.127c1.029,2.372,1.856,4.852,2.455,7.419
						c3.121-1.004,6.63-2.177,7.843-2.746c1.491-0.7,7.147-6.506,11.277-10.745c2.271-2.333,4.234-4.346,5.079-5.082
						c2.003-1.742,10.124-3.502,14.485-4.448c1.033-0.224,1.849-0.4,2.196-0.496c1.02-0.281,7.875-5.702,13.393-10.21
						c-4.667,2.16-12.664,5.841-14.702,6.639c-0.581,0.227-1.431,0.336-2.599,0.336l0,0c-2.192,0-5.154-0.385-8.02-0.758
						c-2.751-0.358-5.335-0.696-6.844-0.63c-1.401,0.061-6.165,1.681-22.333,11.833c-1.202,0.755-3.111,1.238-5.688,1.442
						l-0.367,0.458C187.259,120.398,188.283,122.175,189.18,124.025z"/>
				</g>
				<path fill="#E77429" d="M106.75,135.678c-0.062-0.122-0.087-0.245-0.089-0.368l-0.269,0.027c0.013,0.007,0.025,0.014,0.037,0.02
					c-0.012-0.006-0.024-0.012-0.037-0.02l-0.05,0.005c0.169,0.178,0.337,0.354,0.5,0.529c0.034-0.198,0.065-0.395,0.1-0.591
					l-0.281,0.03C106.663,135.433,106.688,135.556,106.75,135.678z"/>
				<g>
					<path fill="#A41E20" d="M185.176,117.362c0.278-0.012,0.555-0.026,0.82-0.043l44.666-55.882l-55.53,45.991
						C178.994,110.174,182.386,113.534,185.176,117.362z"/>
				</g>
				<g>
					<path fill="#A41E20" d="M106.658,137.099c-0.48-0.529-0.999-1.081-1.543-1.63l-68.154,7.025l69.931,7.942
						c-0.415-2.417-0.636-4.899-0.636-7.432C106.255,141,106.394,139.03,106.658,137.099z"/>
				</g>
				<g>
					<path fill="#A41E20" d="M143.48,186.168l7.219,56.895l5.901-56.937c-2.187,0.338-4.428,0.515-6.709,0.515
						C147.715,186.641,145.575,186.479,143.48,186.168z"/>
				</g>
				<g>
					<path fill="#A41E20" d="M193.529,143.005c0,2.083-0.151,4.132-0.435,6.139l69.321-7.066l-69.456-6.105
						C193.333,138.262,193.529,140.61,193.529,143.005z"/>
				</g>
				<g>
					<path fill="#A41E20" d="M192.985,159.993c1.739,1.457,3.543,2.963,5.062,3.803c2.239,1.232,7.89,1.416,12.433,1.565
						c2.54,0.082,4.736,0.154,5.981,0.385c2.47,0.458,9.175,5.611,9.461,5.83c0.066,0.053,0.082,0.149,0.032,0.222
						c-0.032,0.042-0.082,0.064-0.132,0.064c-0.03,0-0.06-0.008-0.087-0.025c-3.425-2.217-8.184-4.818-8.782-4.984
						c-0.967-0.269-6.046-0.497-10.529-0.701c-3.779-0.169-7.042-0.315-7.811-0.472c-1.692-0.344-5.102-2.813-6.304-4.023
						c-0.455-0.455-1.327-1.106-2.202-1.718c-1.046,2.48-2.318,4.839-3.787,7.061c3.195,1.573,7.438,3.615,8.901,4.11
						c0.417,0.142,1.638,0.311,5.092,0.308c3.124,0,7.037-0.129,10.489-0.243c2.632-0.087,4.902-0.162,6.289-0.162
						c0.376,0,0.666,0.006,0.893,0.016c2.651,0.132,9.727,4.487,13.526,6.828c0.901,0.555,1.612,0.992,1.928,1.163
						c0.93,0.505,9.63,1.345,16.731,1.914c-4.863-1.675-13.18-4.561-15.2-5.397c-1.832-0.756-4.645-4.265-7.366-7.656
						c-1.734-2.165-3.374-4.207-4.5-5.196c-1.054-0.93-5.611-3.062-24.304-6.938c-1.891-0.393-4.16-2.027-6.188-3.827
						c-0.45,2.157-1.059,4.255-1.814,6.282C191.496,158.751,192.234,159.365,192.985,159.993z"/>
				</g>
				<g>
					<path fill="#A41E20" d="M168.554,186.228c0.233,2.26,0.475,4.595,0.979,6.255c0.745,2.445,4.669,6.516,7.82,9.789
						c1.765,1.831,3.29,3.412,4.021,4.448c1.454,2.05,2.669,10.419,2.719,10.772c0.013,0.087-0.045,0.166-0.129,0.182
						c-0.011,0.002-0.021,0.002-0.03,0.002c-0.074,0-0.139-0.05-0.156-0.124c-0.907-3.979-2.508-9.16-2.82-9.696
						c-0.505-0.868-3.989-4.573-7.062-7.843c-2.59-2.756-4.826-5.137-5.269-5.785c-0.975-1.424-1.695-5.571-1.715-7.279
						c-0.01-0.808-0.278-2.288-0.539-3.541c-2.487,1.017-5.087,1.814-7.775,2.361c1.207,3.409,3.046,8.493,3.812,9.989
						c0.753,1.467,6.747,6.924,11.126,10.907c2.407,2.191,4.485,4.083,5.251,4.902c1.809,1.943,3.847,9.997,4.939,14.326
						c0.259,1.024,0.463,1.834,0.569,2.177c0.315,1.009,5.967,7.677,10.661,13.037c-2.319-4.59-6.271-12.458-7.135-14.468
						c-0.785-1.817-0.358-6.295,0.057-10.624c0.264-2.763,0.515-5.367,0.398-6.863c-0.109-1.396-1.892-6.104-12.59-21.915
						c-1.18-1.745-1.652-4.863-1.813-7.796c-1.827,1.205-3.745,2.276-5.748,3.2C168.296,183.723,168.422,184.961,168.554,186.228z"
						/>
				</g>
				<g>
					<path fill="#A41E20" d="M176.126,177.851l52.675,43.604l-43.309-53.243C182.883,171.885,179.719,175.138,176.126,177.851z"/>
				</g>
				<g>
					<path fill="#A41E20" d="M133.171,186.106c-1.478,1.727-3.003,3.511-3.856,5.02c-1.26,2.227-1.505,7.875-1.704,12.415
						c-0.109,2.54-0.205,4.734-0.45,5.979c-0.485,2.466-5.712,9.113-5.935,9.394c-0.031,0.04-0.077,0.06-0.125,0.06
						c-0.033,0-0.066-0.01-0.093-0.029c-0.069-0.05-0.088-0.146-0.04-0.219c2.254-3.399,4.908-8.129,5.082-8.725
						c0.279-0.965,0.564-6.041,0.815-10.52c0.211-3.777,0.394-7.042,0.558-7.808c0.36-1.69,2.871-5.069,4.093-6.26
						c0.446-0.436,1.077-1.26,1.677-2.095c-2.735-1.139-5.332-2.545-7.752-4.19c-1.501,3.235-4.046,8.81-4.58,10.537
						c-0.487,1.575-0.002,9.666,0.351,15.576c0.194,3.25,0.363,6.053,0.336,7.174c-0.058,2.654-4.226,9.843-6.463,13.705
						c-0.53,0.914-0.951,1.635-1.112,1.958c-0.48,0.941-1.087,9.662-1.469,16.776c1.543-4.905,4.208-13.297,4.99-15.34
						c0.708-1.849,4.142-4.757,7.46-7.567c2.117-1.791,4.115-3.483,5.075-4.634c0.899-1.079,2.91-5.691,6.288-24.48
						c0.392-2.174,2.39-4.883,4.418-7.162c-1.984-0.425-3.92-0.983-5.796-1.67C134.396,184.675,133.789,185.386,133.171,186.106z"/>
				</g>
				<g>
					<path fill="#A41E20" d="M114.478,168.468c-0.207-0.008-0.415-0.016-0.629-0.021l-43.936,53.722l54.681-43.63
						C120.698,175.759,117.277,172.349,114.478,168.468z"/>
				</g>
				<g>
					<path fill="#A41E20" d="M110.154,161.024c-1.031,0.115-2.189,0.189-3.377,0.267c-2.267,0.144-4.61,0.293-6.287,0.73
						c-2.475,0.648-6.697,4.408-10.09,7.43c-1.9,1.692-3.539,3.151-4.601,3.845c-2.107,1.369-10.517,2.254-10.873,2.291
						c-0.005,0.003-0.012,0.003-0.017,0.003c-0.079,0-0.147-0.06-0.159-0.14c-0.013-0.084,0.045-0.164,0.13-0.179
						c4.011-0.753,9.25-2.147,9.801-2.438c0.886-0.47,4.725-3.805,8.113-6.75c2.855-2.479,5.322-4.622,5.987-5.037
						c1.473-0.927,5.487-1.431,7.135-1.431c0.074,0,0.141,0,0.205,0.002c0.04,0.003,0.082-0.007,0.123,0.003
						c0.764,0,2.024-0.172,3.157-0.354c-0.986-2.447-1.757-5.005-2.289-7.644c-3.337,1.034-9.542,2.992-11.242,3.782
						c-1.494,0.693-7.17,6.48-11.317,10.705c-2.279,2.324-4.248,4.332-5.094,5.064c-2.01,1.735-10.136,3.467-14.5,4.396
						c-1.035,0.221-1.852,0.396-2.199,0.489c-1.02,0.276-7.895,5.676-13.427,10.164c4.674-2.145,12.684-5.798,14.724-6.588
						c0.571-0.221,1.401-0.33,2.537-0.33c2.199,0,5.188,0.402,8.079,0.787c2.753,0.368,5.341,0.719,6.843,0.653
						c1.403-0.055,6.173-1.659,22.373-11.756c1.624-1.012,4.524-1.523,8.622-1.523c0.301,0,0.599,0,0.892,0.007l0.209-0.256
						C112.298,165.262,111.141,163.189,110.154,161.024z"/>
				</g>
				<g>
					<path fill="#E77429" d="M267.542,141.565l-74.754-6.573c-0.058-0.313-0.119-0.625-0.185-0.936
						c3.166-1.018,6.767-2.222,8.044-2.82c1.528-0.717,5.944-5.183,11.561-10.945c2.257-2.317,4.205-4.318,5.02-5.027
						c1.817-1.582,10.085-3.372,14.056-4.233c1.091-0.236,1.879-0.407,2.251-0.51c1.807-0.497,15.139-11.532,16.655-12.788
						c0.184-0.154,0.229-0.423,0.1-0.627c-0.13-0.204-0.394-0.281-0.611-0.179c-0.152,0.072-15.227,7.091-18.06,8.201
						c-0.459,0.18-1.217,0.272-2.248,0.272l0,0c-2.133,0-5.06-0.381-7.896-0.75c-2.801-0.364-5.439-0.707-7.01-0.637
						c-2.659,0.117-10.33,4.147-22.8,11.98c-0.923,0.579-2.396,0.987-4.345,1.209l47.015-58.818c0.154-0.192,0.137-0.471-0.04-0.642
						c-0.174-0.174-0.452-0.184-0.641-0.029l-59.343,49.147c-0.077-0.052-0.156-0.104-0.23-0.154
						c1.689-3.117,4.698-8.749,5.38-10.55c0.601-1.578,0.661-7.859,0.681-15.905c0.008-3.233,0.013-6.025,0.104-7.103
						c0.203-2.399,4.891-9.442,7.142-12.827c0.619-0.927,1.063-1.598,1.26-1.929c0.952-1.617,2.841-18.819,3.055-20.775
						c0.024-0.24-0.13-0.463-0.365-0.52c-0.234-0.056-0.475,0.071-0.562,0.296c-0.06,0.156-5.993,15.689-7.256,18.46
						c-0.718,1.577-4.381,4.308-7.614,6.717c-2.259,1.684-4.391,3.273-5.477,4.423c-1.826,1.935-4.528,10.169-8.026,24.474
						c-0.5,2.039-2.736,4.612-4.916,6.726l-7.651-62.387c-0.03-0.241-0.234-0.422-0.478-0.422h-0.001
						c-0.245,0.002-0.449,0.185-0.476,0.428l-7.321,64.3c-1.01-3.261-3.09-9.852-3.944-11.68c-0.713-1.531-5.168-5.957-10.92-11.585
						c-2.312-2.261-4.308-4.215-5.013-5.031c-1.578-1.82-3.351-10.09-4.204-14.066c-0.233-1.088-0.402-1.876-0.503-2.249
						c-0.494-1.81-11.499-15.166-12.751-16.683c-0.154-0.187-0.421-0.23-0.627-0.101c-0.204,0.129-0.281,0.389-0.179,0.609
						c0.07,0.151,7.055,15.241,8.158,18.079c0.629,1.615,0.03,6.144-0.5,10.141c-0.37,2.791-0.718,5.429-0.653,7.01
						c0.112,2.659,4.125,10.339,11.931,22.827c1.101,1.762,1.387,5.11,1.388,8.122L67.625,59.206
						c-0.189-0.156-0.467-0.144-0.644,0.03c-0.175,0.174-0.191,0.451-0.036,0.644l47.031,58.375
						c-0.169,0.245-0.337,0.492-0.502,0.739c-3.189-1.732-8.239-4.431-9.927-5.074c-1.578-0.602-7.859-0.676-15.904-0.713
						c-3.234-0.015-6.027-0.027-7.102-0.121c-2.399-0.208-9.433-4.912-12.812-7.171c-0.926-0.62-1.594-1.067-1.926-1.264
						c-1.615-0.956-18.812-2.883-20.77-3.099c-0.239-0.028-0.462,0.129-0.52,0.364s0.07,0.476,0.296,0.563
						c0.156,0.06,15.675,6.027,18.442,7.296c1.574,0.723,4.298,4.391,6.701,7.629c1.679,2.261,3.263,4.397,4.412,5.487
						c1.931,1.832,10.159,4.55,24.455,8.08c1.629,0.403,3.598,1.918,5.4,3.625l-71.773,7.398c-0.243,0.025-0.43,0.23-0.432,0.476
						c0,0.245,0.184,0.452,0.427,0.479l72.756,8.264c-3.451,1.081-8.221,2.619-9.733,3.319c-1.531,0.714-5.961,5.164-11.597,10.907
						c-2.264,2.309-4.221,4.302-5.037,5.01c-1.823,1.573-10.097,3.337-14.072,4.185c-1.089,0.231-1.877,0.4-2.25,0.5
						c-1.812,0.491-15.181,11.48-16.699,12.732c-0.187,0.152-0.231,0.42-0.102,0.627c0.092,0.144,0.247,0.224,0.408,0.224
						c0.067,0,0.137-0.016,0.201-0.045c0.151-0.069,15.25-7.038,18.088-8.136c0.452-0.177,1.188-0.264,2.189-0.264
						c2.134,0,5.092,0.393,7.953,0.775c2.799,0.375,5.432,0.726,7.007,0.663c2.661-0.106,10.345-4.112,22.842-11.9
						c1.449-0.904,4.254-1.382,8.114-1.382c0.037,0,0.075,0,0.112,0l-46.315,56.631c-0.155,0.191-0.143,0.468,0.031,0.644
						c0.092,0.095,0.216,0.142,0.34,0.142c0.107,0,0.212-0.034,0.301-0.106l56.81-45.327c-1.486,3.236-3.375,7.453-3.844,8.972
						c-0.5,1.612-0.171,7.885,0.308,15.919c0.193,3.226,0.36,6.014,0.335,7.092c-0.055,2.408-4.296,9.727-6.335,13.245
						c-0.558,0.964-0.963,1.66-1.137,2.003c-0.85,1.675-1.67,18.961-1.761,20.924c-0.011,0.244,0.158,0.455,0.396,0.497
						c0.03,0.005,0.057,0.008,0.084,0.008c0.206,0,0.395-0.135,0.458-0.338c0.05-0.159,5.01-16.031,6.098-18.874
						c0.62-1.618,4.106-4.572,7.183-7.177c2.149-1.819,4.18-3.539,5.191-4.754c1.705-2.043,3.891-10.43,6.497-24.922
						c0.376-2.095,2.504-4.851,4.574-7.112c0.217,0.04,0.435,0.079,0.654,0.116l7.778,61.313c0.03,0.238,0.235,0.42,0.477,0.42
						c0,0,0.004,0,0.005,0c0.244-0.003,0.447-0.189,0.474-0.433l6.36-61.348c0.018-0.005,0.037-0.008,0.055-0.01
						c1.213,3.43,3.104,8.663,3.914,10.243c0.768,1.504,5.383,5.766,11.332,11.18c2.393,2.178,4.458,4.059,5.195,4.849
						c1.643,1.76,3.716,9.965,4.71,13.906c0.272,1.078,0.472,1.858,0.586,2.227c0.56,1.792,12.04,14.741,13.347,16.21
						c0.095,0.106,0.227,0.161,0.36,0.161h0.005c0.267,0,0.482-0.214,0.482-0.481c0-0.104-0.034-0.202-0.092-0.278
						c-0.539-1.069-7.611-15.005-8.777-17.709c-0.686-1.59-0.251-6.138,0.132-10.153c0.269-2.804,0.522-5.45,0.397-7.027
						c-0.206-2.654-4.495-10.182-12.748-22.381c-1.143-1.685-1.556-4.928-1.675-7.89c0.174-0.122,0.348-0.246,0.52-0.37
						l56.616,46.867c0.089,0.074,0.198,0.112,0.306,0.112c0.002,0,0.005,0,0.005,0c0.269,0,0.482-0.217,0.482-0.479
						c0-0.143-0.06-0.269-0.154-0.355l-45.77-56.269c3.066,1.501,6.712,3.235,8.099,3.708c0.726,0.243,2.44,0.357,5.4,0.357
						c3.139,0,7.062-0.129,10.521-0.243c3.277-0.109,6.014-0.199,7.103-0.146c2.405,0.116,9.606,4.555,13.068,6.685
						c0.949,0.584,1.635,1.006,1.973,1.19c1.65,0.895,18.909,2.172,20.872,2.315c0.013,0,0.022,0,0.035,0c0.002,0,0.002,0,0.007,0
						c0.264,0,0.479-0.214,0.479-0.479c0-0.227-0.156-0.417-0.37-0.467c-0.862-0.296-15.919-5.45-18.667-6.586
						c-1.601-0.663-4.458-4.227-6.983-7.373c-1.759-2.196-3.424-4.269-4.612-5.315c-1.997-1.757-10.322-4.165-24.743-7.156
						c-1.831-0.381-4.138-2.128-6.168-3.991c0.043-0.228,0.077-0.457,0.117-0.686l74.605-7.604c0.248-0.025,0.432-0.233,0.432-0.482
						C267.98,141.792,267.792,141.586,267.542,141.565z M192.174,116.805c16.168-10.152,20.932-11.772,22.333-11.833
						c1.509-0.066,4.093,0.272,6.844,0.63c2.865,0.373,5.827,0.758,8.02,0.758l0,0c1.168,0,2.018-0.109,2.599-0.336
						c2.038-0.798,10.035-4.479,14.702-6.639c-5.518,4.508-12.373,9.929-13.393,10.21c-0.348,0.096-1.163,0.272-2.196,0.496
						c-4.361,0.946-12.482,2.707-14.485,4.448c-0.845,0.736-2.808,2.75-5.079,5.082c-4.13,4.239-9.786,10.045-11.277,10.745
						c-1.213,0.569-4.722,1.742-7.843,2.746c-0.599-2.567-1.426-5.047-2.455-7.419c0.597-0.076,1.146-0.127,1.548-0.127l0.098,0.001
						c0.052,0.001,0.104,0.001,0.158,0.001l0,0c1.653,0,5.682-0.517,7.177-1.467c0.661-0.42,3.116-2.575,5.96-5.069
						c3.372-2.961,7.193-6.316,8.076-6.791c0.549-0.294,5.782-1.716,9.788-2.489c0.085-0.016,0.142-0.096,0.129-0.181
						c-0.012-0.084-0.097-0.145-0.176-0.136c-0.358,0.039-8.763,0.967-10.859,2.349c-1.062,0.697-2.694,2.167-4.583,3.868
						c-3.377,3.039-7.579,6.821-10.049,7.482c-1.675,0.45-4.019,0.61-6.285,0.766c-0.594,0.042-1.178,0.082-1.744,0.126
						c-0.897-1.85-1.921-3.627-3.062-5.32l0.367-0.458C189.063,118.043,190.972,117.561,192.174,116.805z M230.663,61.436
						l-44.666,55.882c-0.266,0.018-0.542,0.031-0.82,0.043c-2.79-3.828-6.183-7.188-10.044-9.935L230.663,61.436z M163.335,91.694
						c4.535-18.542,6.829-23.023,7.791-24.042c1.028-1.09,3.131-2.656,5.353-4.314c3.486-2.599,7.093-5.288,7.915-7.088
						c0.907-1.992,4.085-10.202,5.932-15.001c-0.822,7.077-1.968,15.741-2.505,16.652c-0.184,0.311-0.646,1.005-1.23,1.885
						c-2.475,3.716-7.079,10.632-7.303,13.279c-0.095,1.116-0.1,3.927-0.107,7.182c-0.015,5.919-0.032,14.025-0.616,15.567
						c-0.648,1.716-3.605,7.248-5.293,10.361c-2.294-1.461-4.729-2.714-7.286-3.731c0.733-1.06,1.635-2.295,2.217-2.863
						c1.223-1.19,3.732-4.574,4.093-6.26c0.164-0.767,0.346-4.028,0.557-7.805c0.248-4.48,0.531-9.559,0.815-10.522
						c0.171-0.598,2.822-5.327,5.079-8.728c0.047-0.072,0.029-0.168-0.04-0.219s-0.166-0.037-0.219,0.031
						c-0.224,0.281-5.449,6.93-5.934,9.396c-0.244,1.244-0.339,3.437-0.45,5.977c-0.196,4.54-0.439,10.188-1.7,12.415
						c-0.854,1.511-2.38,3.295-3.856,5.021c-0.859,1.006-1.697,1.987-2.376,2.881c-2.085-0.723-4.239-1.294-6.453-1.697
						l-0.085-0.683C160.053,97.103,162.742,94.121,163.335,91.694z M149.375,39.957l7.244,59.057
						c-0.283,0.264-0.562,0.516-0.83,0.754c-1.928-0.262-3.896-0.4-5.896-0.4c-2.505,0-4.96,0.215-7.351,0.623L149.375,39.957z
						 M123.168,96.871c-10.118-16.188-11.727-20.957-11.785-22.358c-0.062-1.498,0.282-4.095,0.645-6.844
						c0.571-4.312,1.162-8.771,0.445-10.616c-0.793-2.039-4.456-10.044-6.606-14.716c4.497,5.528,9.904,12.394,10.181,13.415
						c0.094,0.347,0.27,1.163,0.491,2.198c0.936,4.364,2.677,12.487,4.417,14.494c0.732,0.847,2.742,2.812,5.068,5.089
						c4.23,4.14,10.024,9.811,10.722,11.304c0.816,1.748,2.876,8.271,3.885,11.524c-2.714,0.589-5.335,1.429-7.835,2.499
						c-0.269-1.33-0.582-3.073-0.582-3.972c0-1.705-0.671-5.862-1.629-7.299c-0.436-0.652-2.644-3.059-5.202-5.846
						c-3.034-3.305-6.474-7.051-6.969-7.924c-0.307-0.542-1.845-5.742-2.708-9.729c-0.018-0.084-0.098-0.139-0.184-0.125
						c-0.084,0.015-0.142,0.093-0.131,0.179c0.047,0.355,1.163,8.738,2.592,10.805c0.721,1.044,2.225,2.642,3.968,4.494
						c3.114,3.308,6.991,7.424,7.706,9.88c0.486,1.665,0.698,4.003,0.906,6.265c0.133,1.462,0.265,2.884,0.464,4.073
						c-1.954,0.939-3.823,2.021-5.602,3.229l-0.723-0.596C124.75,102.972,124.488,98.981,123.168,96.871z M70.658,62.955
						l53.067,43.781c-0.01,0.49-0.027,0.963-0.05,1.409c-3.482,2.625-6.559,5.761-9.123,9.292L70.658,62.955z M99.051,130.037
						c-18.531-4.576-23.006-6.878-24.024-7.845c-1.087-1.031-2.648-3.135-4.302-5.361c-2.592-3.493-5.272-7.104-7.071-7.93
						c-1.989-0.912-10.193-4.109-14.99-5.965c7.078,0.837,15.739,2.003,16.648,2.542c0.31,0.183,1.004,0.646,1.882,1.235
						c3.71,2.481,10.617,7.101,13.263,7.331c1.115,0.097,3.926,0.109,7.182,0.125c5.919,0.027,14.025,0.063,15.565,0.65
						c1.608,0.612,6.569,3.263,9.748,4.987c-1.439,2.28-2.671,4.699-3.672,7.235c-0.916-0.649-1.856-1.363-2.331-1.853
						c-1.187-1.224-4.564-3.741-6.251-4.105c-0.767-0.166-4.027-0.354-7.803-0.574c-4.48-0.26-9.557-0.555-10.521-0.837
						c-0.597-0.174-5.319-2.836-8.715-5.099c-0.072-0.047-0.169-0.03-0.219,0.04c-0.051,0.068-0.038,0.166,0.03,0.22
						c0.281,0.222,6.918,5.463,9.383,5.953c1.244,0.248,3.438,0.347,5.978,0.462c4.539,0.208,10.186,0.463,12.41,1.728
						c1.508,0.857,3.29,2.388,5.012,3.867c0.817,0.704,1.618,1.389,2.368,1.988c-0.61,1.773-1.111,3.598-1.491,5.466l-0.189,0.985
						c-0.035,0.196-0.066,0.394-0.1,0.591c-0.163-0.175-0.331-0.352-0.5-0.529l0.05-0.005c-0.473-0.241-0.765-0.49-0.874-0.876
						l-0.043,0.003C103.424,132.45,101.049,130.531,99.051,130.037z M36.96,142.494l68.154-7.025
						c0.544,0.549,1.063,1.101,1.543,1.63c-0.264,1.931-0.403,3.901-0.403,5.906c0,2.532,0.221,5.015,0.636,7.432L36.96,142.494z
						 M112.51,167.469c-4.098,0-6.998,0.512-8.622,1.523c-16.2,10.097-20.97,11.701-22.373,11.756
						c-1.502,0.065-4.09-0.285-6.843-0.653c-2.89-0.385-5.879-0.787-8.079-0.787c-1.136,0-1.966,0.109-2.537,0.33
						c-2.041,0.79-10.05,4.443-14.724,6.588c5.532-4.488,12.407-9.888,13.427-10.164c0.348-0.094,1.164-0.269,2.199-0.489
						c4.365-0.93,12.49-2.661,14.5-4.396c0.846-0.732,2.815-2.74,5.094-5.064c4.146-4.225,9.823-10.012,11.317-10.705
						c1.7-0.79,7.905-2.748,11.242-3.782c0.532,2.639,1.302,5.196,2.289,7.644c-1.133,0.182-2.393,0.354-3.157,0.354
						c-0.041-0.01-0.083,0-0.123,0c-0.064-0.005-0.131-0.005-0.205-0.005c-1.648,0-5.662,0.504-7.135,1.431
						c-0.665,0.415-3.131,2.558-5.987,5.037c-3.388,2.945-7.228,6.28-8.113,6.75c-0.551,0.29-5.79,1.685-9.801,2.438
						c-0.085,0.015-0.143,0.095-0.13,0.179c0.012,0.08,0.08,0.14,0.159,0.14c0.005,0,0.012,0,0.017-0.003
						c0.356-0.037,8.766-0.922,10.873-2.291c1.062-0.693,2.701-2.152,4.601-3.845c3.393-3.021,7.615-6.781,10.09-7.43
						c1.677-0.438,4.021-0.587,6.287-0.73c1.188-0.077,2.346-0.151,3.377-0.267c0.987,2.165,2.145,4.237,3.457,6.195l-0.209,0.256
						C113.109,167.469,112.811,167.469,112.51,167.469z M69.914,222.169l43.936-53.722c0.214,0.005,0.422,0.013,0.629,0.021
						c2.799,3.881,6.22,7.291,10.116,10.071L69.914,222.169z M136.317,192.833c-3.378,18.789-5.389,23.401-6.288,24.48
						c-0.959,1.15-2.958,2.843-5.075,4.634c-3.318,2.811-6.751,5.719-7.46,7.567c-0.781,2.043-3.447,10.435-4.99,15.34
						c0.381-7.114,0.989-15.835,1.469-16.776c0.161-0.323,0.582-1.044,1.112-1.958c2.238-3.862,6.405-11.051,6.463-13.705
						c0.026-1.121-0.143-3.924-0.336-7.174c-0.353-5.91-0.837-14.001-0.351-15.576c0.534-1.728,3.079-7.302,4.58-10.537
						c2.42,1.646,5.017,3.052,7.752,4.19c-0.6,0.835-1.231,1.659-1.677,2.095c-1.222,1.19-3.733,4.569-4.093,6.26
						c-0.164,0.766-0.347,4.03-0.558,7.808c-0.251,4.479-0.536,9.555-0.815,10.52c-0.174,0.596-2.828,5.325-5.082,8.725
						c-0.048,0.072-0.03,0.169,0.04,0.219c0.027,0.02,0.06,0.029,0.093,0.029c0.049,0,0.095-0.02,0.125-0.06
						c0.223-0.28,5.45-6.928,5.935-9.394c0.245-1.244,0.34-3.438,0.45-5.979c0.199-4.54,0.443-10.188,1.704-12.415
						c0.854-1.509,2.379-3.293,3.856-5.02c0.618-0.721,1.224-1.432,1.768-2.105c1.876,0.687,3.812,1.245,5.796,1.67
						C138.707,187.95,136.709,190.659,136.317,192.833z M150.7,243.062l-7.219-56.895c2.095,0.311,4.234,0.473,6.412,0.473
						c2.281,0,4.522-0.177,6.709-0.515L150.7,243.062z M175.686,187.237c10.698,15.812,12.48,20.519,12.59,21.915
						c0.116,1.496-0.135,4.101-0.398,6.863c-0.415,4.329-0.842,8.807-0.057,10.624c0.864,2.01,4.815,9.878,7.135,14.468
						c-4.694-5.36-10.346-12.028-10.661-13.037c-0.106-0.343-0.311-1.152-0.569-2.177c-1.093-4.329-3.131-12.383-4.939-14.326
						c-0.766-0.819-2.844-2.711-5.251-4.902c-4.379-3.983-10.373-9.44-11.126-10.907c-0.766-1.496-2.604-6.58-3.812-9.989
						c2.688-0.547,5.288-1.345,7.775-2.361c0.261,1.253,0.529,2.733,0.539,3.541c0.02,1.708,0.74,5.855,1.715,7.279
						c0.442,0.648,2.679,3.029,5.269,5.785c3.073,3.27,6.558,6.975,7.062,7.843c0.312,0.536,1.913,5.718,2.82,9.696
						c0.018,0.074,0.082,0.124,0.156,0.124c0.01,0,0.02,0,0.03-0.002c0.084-0.016,0.142-0.095,0.129-0.182
						c-0.05-0.354-1.265-8.723-2.719-10.772c-0.73-1.036-2.256-2.617-4.021-4.448c-3.151-3.273-7.075-7.344-7.82-9.789
						c-0.505-1.66-0.746-3.995-0.979-6.255c-0.132-1.267-0.258-2.505-0.43-3.586c2.003-0.924,3.921-1.995,5.748-3.2
						C174.034,182.374,174.506,185.492,175.686,187.237z M149.892,185.679c-23.531,0-42.674-19.145-42.674-42.674
						c0-23.532,19.144-42.675,42.674-42.675c23.53,0,42.675,19.144,42.675,42.675C192.567,166.534,173.422,185.679,149.892,185.679z
						 M228.801,221.455l-52.675-43.604c3.593-2.713,6.757-5.966,9.366-9.639L228.801,221.455z M198.799,155.744
						c18.692,3.877,23.25,6.009,24.304,6.938c1.126,0.989,2.766,3.031,4.5,5.196c2.722,3.392,5.534,6.9,7.366,7.656
						c2.021,0.837,10.337,3.723,15.2,5.397c-7.102-0.569-15.802-1.409-16.731-1.914c-0.315-0.171-1.026-0.608-1.928-1.163
						c-3.8-2.341-10.875-6.696-13.526-6.828c-0.227-0.01-0.517-0.016-0.893-0.016c-1.387,0-3.657,0.075-6.289,0.162
						c-3.452,0.114-7.365,0.243-10.489,0.243c-3.454,0.003-4.675-0.166-5.092-0.308c-1.464-0.495-5.706-2.537-8.901-4.11
						c1.469-2.222,2.741-4.58,3.787-7.061c0.875,0.611,1.747,1.263,2.202,1.718c1.202,1.21,4.611,3.68,6.304,4.023
						c0.769,0.156,4.031,0.303,7.811,0.472c4.483,0.204,9.562,0.433,10.529,0.701c0.599,0.166,5.357,2.768,8.782,4.984
						c0.027,0.018,0.057,0.025,0.087,0.025c0.05,0,0.1-0.022,0.132-0.064c0.05-0.072,0.034-0.169-0.032-0.222
						c-0.286-0.219-6.991-5.372-9.461-5.83c-1.245-0.23-3.441-0.303-5.981-0.385c-4.543-0.149-10.193-0.333-12.433-1.565
						c-1.519-0.84-3.322-2.346-5.062-3.803c-0.751-0.628-1.489-1.242-2.188-1.794c0.756-2.027,1.364-4.125,1.814-6.282
						C194.639,153.717,196.909,155.352,198.799,155.744z M193.094,149.144c0.283-2.007,0.435-4.056,0.435-6.139
						c0-2.395-0.196-4.743-0.569-7.033l69.456,6.105L193.094,149.144z"/>
					<g>
						<path fill="#A41E20" d="M192.567,143.005c0-23.532-19.145-42.675-42.675-42.675c-23.531,0-42.674,19.144-42.674,42.675
							c0,23.529,19.144,42.674,42.674,42.674C173.422,185.679,192.567,166.534,192.567,143.005z"/>
					</g>
				</g>
			</g>
		</g>
		<g>
			<g>
				<path fill="#E7722A" d="M121.799,144.713c0,0-3.525,7.477,2.564,9.828c6.088,2.352,15.062,0.855,15.062-5.448l0.747,0.32
					c0,0,0.714,9.929-12.178,7.796C114.428,154.969,121.799,144.713,121.799,144.713z"/>
			</g>
		</g>
		<g>
			<g>
				<path fill="#E7722A" d="M177.383,144.713c0,0,3.524,7.477-2.564,9.828c-6.088,2.352-15.062,0.855-15.062-5.448l-0.748,0.32
					c0,0-0.716,9.929,12.177,7.796C184.754,154.969,177.383,144.713,177.383,144.713z"/>
			</g>
		</g>
		<g>
			<g>
				<path fill="#E7722A" d="M149.678,156.73c-3.063,0-4.028-2.74-4.11-4.192l-0.002-6.756c0-0.266,0.216-0.481,0.482-0.481
					c0.264,0,0.48,0.215,0.48,0.481v6.729c0.007,0.107,0.236,3.259,3.151,3.259s3.144-3.151,3.153-3.285l-0.002-6.703
					c0-0.266,0.216-0.481,0.481-0.481c0.267,0,0.479,0.215,0.479,0.481v6.729C153.707,153.99,152.743,156.73,149.678,156.73z"/>
			</g>
		</g>
		<g>
			<g>
				<path fill="#E7722A" d="M143.394,154.986c-0.463,0-0.896-0.102-1.293-0.311c-2.213-1.144-2.402-5.076-2.409-5.242
					c-0.01-0.265,0.195-0.488,0.46-0.5c0.266-0.014,0.489,0.194,0.5,0.458c0.043,0.982,0.466,3.692,1.891,4.431
					c0.789,0.407,1.844,0.188,3.137-0.648c0.221-0.145,0.52-0.08,0.664,0.144c0.144,0.225,0.081,0.52-0.142,0.664
					C145.169,154.65,144.229,154.986,143.394,154.986z"/>
			</g>
		</g>
		<g>
			<g>
				<path fill="#E7722A" d="M156.688,155.07c-1.004,0-2.219-0.432-3.628-1.294c-0.226-0.14-0.298-0.436-0.159-0.661
					c0.14-0.227,0.433-0.299,0.661-0.159c1.287,0.79,3.052,1.583,4.125,0.882c1.337-0.872,1.268-3.751,1.129-4.788
					c-0.035-0.262,0.148-0.505,0.412-0.54s0.505,0.149,0.542,0.413c0.022,0.176,0.554,4.344-1.559,5.721
					C157.774,154.929,157.265,155.07,156.688,155.07z"/>
			</g>
		</g>
		<g>
			<g>
				<path fill="#E7722A" d="M123,136.862c0,0,6.729-6.088,10.656-5.928c3.925,0.161,8.492,5.528,9.292,7.05
					c0,0-4.566,1.843-6.971,2.884c-2.403,1.042-9.291-0.321-11.535-2.804c0,0,0.641,1.523,2.964,2.644
					c2.322,1.122,6.89,1.923,11.215,0.241c4.326-1.682,4.407-1.842,4.967-1.842c0.562,0,0.641-1.522-0.162-2.565
					c-0.8-1.041-4.565-6.89-9.853-6.89S123.24,135.821,123,136.862z"/>
			</g>
		</g>
		<g>
			<g>
				<path fill="#E7722A" d="M133.334,141.749c-2.428,0-4.406-1.976-4.406-4.406c0-2.429,1.978-4.406,4.406-4.406
					c2.43,0,4.407,1.977,4.407,4.406C137.741,139.773,135.765,141.749,133.334,141.749z M133.334,133.257
					c-2.251,0-4.085,1.833-4.085,4.085c0,2.252,1.834,4.085,4.085,4.085c2.254,0,4.086-1.833,4.086-4.085
					C137.421,135.09,135.588,133.257,133.334,133.257z"/>
			</g>
		</g>
		<g>
			<g>
				<circle fill="#E7722A" cx="133.335" cy="136.381" r="3.045"/>
			</g>
		</g>
		<g>
			<g>
				<path fill="#E7722A" d="M176.598,136.862c0,0-6.729-6.088-10.655-5.928c-3.927,0.161-8.494,5.528-9.294,7.05
					c0,0,4.567,1.843,6.97,2.884c2.403,1.042,9.292-0.321,11.536-2.804c0,0-0.642,1.523-2.965,2.644
					c-2.321,1.122-6.889,1.923-11.215,0.241c-4.326-1.682-4.406-1.842-4.968-1.842s-0.641-1.522,0.162-2.565
					c0.8-1.041,4.564-6.89,9.853-6.89S176.357,135.821,176.598,136.862z"/>
			</g>
		</g>
		<g>
			<g>
				<path fill="#E7722A" d="M166.263,141.749c-2.431,0-4.406-1.976-4.406-4.406c0-2.429,1.976-4.406,4.406-4.406
					c2.428,0,4.406,1.977,4.406,4.406C170.669,139.773,168.691,141.749,166.263,141.749z M166.263,133.257
					c-2.254,0-4.088,1.833-4.088,4.085c0,2.252,1.834,4.085,4.088,4.085c2.251,0,4.085-1.833,4.085-4.085
					C170.348,135.09,168.514,133.257,166.263,133.257z"/>
			</g>
		</g>
		<g>
			<g>
				<circle fill="#E7722A" cx="166.263" cy="136.381" r="3.044"/>
			</g>
		</g>
		<g>
			<g>
				<path fill="#E7722A" d="M135.338,105.297c0,0-10.816,7.37-13.298,10.415c-2.484,3.044-5.128,7.131-3.206,8.493
					c1.923,1.362,6.729-2.244,9.374-3.525c2.644-1.282,11.537-5.048,18.347,2.403l-0.962,1.362c0,0-6.729-7.852-16.263-2.884
					c-9.534,4.967-12.738,4.967-12.257,0.881C117.552,118.356,125.965,110.344,135.338,105.297z"/>
			</g>
		</g>
		<g>
			<g>
				<path fill="#E7722A" d="M146.234,133.738c0,0-1.362-10.575-9.854-9.935c-8.492,0.641-10.656,7.932-16.423,7.611
					c0,0-2.484-0.722-3.525-2.484c0,0,1.121,3.765,3.765,3.444c2.644-0.319,6.891-2.724,9.935-4.966
					c3.044-2.243,7.691-2.964,10.094-0.881C142.628,128.61,143.59,128.69,146.234,133.738z"/>
			</g>
		</g>
		<g>
			<g>
				<path fill="#E7722A" d="M164.339,105.297c0,0,10.815,7.37,13.298,10.415c2.485,3.044,5.129,7.131,3.206,8.493
					c-1.924,1.362-6.729-2.244-9.374-3.525c-2.644-1.282-11.535-5.048-18.345,2.403l0.96,1.362c0,0,6.729-7.852,16.264-2.884
					c9.533,4.967,12.738,4.967,12.259,0.881C182.125,118.356,173.713,110.344,164.339,105.297z"/>
			</g>
		</g>
		<g>
			<g>
				<path fill="#E7722A" d="M153.443,133.738c0,0,1.362-10.575,9.855-9.935c8.491,0.641,10.656,7.932,16.424,7.611
					c0,0,2.482-0.722,3.526-2.484c0,0-1.123,3.765-3.768,3.444c-2.644-0.319-6.889-2.724-9.935-4.966
					c-3.042-2.243-7.689-2.964-10.095-0.881C157.048,128.61,156.087,128.69,153.443,133.738z"/>
			</g>
		</g>
		<g>
			<g>
				<path fill="#E7722A" d="M149.764,126.172l-6.582-14.391l6.568-7.442l6.585,7.113L149.764,126.172z M144.317,111.951
					l5.436,11.887l5.445-12.198l-5.43-5.867L144.317,111.951z"/>
			</g>
		</g>
		<g>
			<g>
				<path fill="#E7722A" d="M149.357,172.327c-9.306,0-15.186-7.033-15.432-7.334c-0.112-0.134-0.141-0.32-0.076-0.481
					c0.065-0.164,0.215-0.278,0.389-0.299c0.689-0.084,2.609-0.465,3.208-1.213c0.892-1.115,4.555-2.763,6.663-2.763
					c0.139,0,0.27,0.007,0.393,0.022c1.331,0.156,2.38,0.922,3.076,1.429c0.223,0.164,0.502,0.368,0.597,0.393
					c0.04,0.01,0.249,0.04,1.054,0.04c0.785,0,1.745-0.03,2.156-0.043c0.461-0.486,1.939-1.9,3.503-1.9
					c0.238,0,0.475,0.032,0.695,0.1c0.843,0.245,2.18,1.004,3.596,1.809c1.501,0.85,3.367,1.911,4.004,1.911
					c0.184-0.015,0.367,0.074,0.462,0.231c0.095,0.153,0.104,0.353,0.008,0.507C163.602,164.81,158.702,172.327,149.357,172.327z"/>
			</g>
		</g>
		<g>
			<g>
				<g>
					<path fill="#FAC696" d="M152.201,99.431l0.039-83.97h-1.816v-2.137h1.583l-2.223-2.991l-2.224,2.991h1.583v2.137h-1.815
						l-0.042,83.983c0.85-0.05,1.705-0.077,2.567-0.077C150.64,99.367,151.422,99.389,152.201,99.431z"/>
				</g>
				<g>
					<path fill="#FAC696" d="M156.952,240.319h-4.712v-54.223v-14.506v-9.666c-0.393,0.345-0.638,0.628-0.638,0.628
						s-2.992,0.107-3.525,0c-0.174-0.034-0.426-0.218-0.75-0.452v9.622v14.358v54.238h-4.711c-1.232,0-2.233,1.026-2.233,2.296
						c0,1.268,1,2.297,2.233,2.297h4.711v3.971h-2.893l5.349,40.784l5.349-40.784h-2.893v-3.971h4.712
						c1.232,0,2.231-1.029,2.231-2.297C159.183,241.346,158.184,240.319,156.952,240.319z"/>
				</g>
			</g>
		</g>
	</g>
</g>
</svg>
