<?xml version="1.0" encoding="utf-8"?>
<!-- Generator: Adobe Illustrator 15.0.2, SVG Export Plug-In . SVG Version: 6.00 Build 0)  -->
<!DOCTYPE svg PUBLIC "-//W3C//DTD SVG 1.1//EN" "http://www.w3.org/Graphics/SVG/1.1/DTD/svg11.dtd">
<svg version="1.1" id="Ebene_1" xmlns="http://www.w3.org/2000/svg" xmlns:xlink="http://www.w3.org/1999/xlink" x="0px" y="0px"
	 width="300px" height="300.69px" viewBox="0 0 300 300.69" enable-background="new 0 0 300 300.69" xml:space="preserve">
<g>
	<rect y="0.691" fill="#EEEDC1" width="300" height="299.999"/>
	<g>
		<g>
			<path d="M128.94,163.29c-0.697-0.512-1.091-0.018-1.491,0.233c-2.416,1.512-4.234,3.606-5.634,6.052
				c-0.739,1.29-1.343,2.662-1.914,4.037c-0.23,0.552-0.296,1.207-0.298,1.816c-0.008,1.784-0.104,3.547-0.702,5.252
				c-0.083,0.233-0.056,0.508-0.058,0.765c-0.009,1.28,0.003,2.561-0.021,3.84c-0.025,1.421-1.532,2.232-2.794,1.459
				c-1.162-0.71-2.288-1.491-3.379-2.306c-2.351-1.76-4.733-3.487-6.985-5.37c-2.549-2.129-5.029-4.351-7.417-6.659
				c-1.021-0.987-1.77-2.271-2.579-3.462c-1.229-1.81-2.474-3.611-3.58-5.495c-0.883-1.502-1.573-3.117-2.349-4.683
				c-0.603-1.218-1.299-2.401-1.787-3.664c-0.746-1.931-1.307-3.934-2.016-5.88c-0.817-2.239-1.695-4.454-2.584-6.666
				c-0.134-0.328-0.428-0.674-0.74-0.835c-1.751-0.917-3.496-1.859-5.31-2.632c-1.065-0.452-1.766-1.096-2.124-2.162
				c-0.374-1.119-0.816-2.219-1.109-3.358c-0.246-0.957-0.4-1.956-0.453-2.943c-0.148-2.826-0.285-5.654-0.295-8.482
				c-0.005-1.292,0.135-2.632,0.499-3.865c0.602-2.028,1.377-4.014,2.19-5.972c0.882-2.127,2.232-3.929,4.119-5.309
				c0.553-0.403,1.016-0.93,1.565-1.444c-0.959-0.547-1.868-1.017-2.72-1.574c-0.362-0.236-0.712-0.609-0.879-1.001
				c-0.662-1.566-0.181-3.268,1.161-4.297c0.984-0.753,1.976-1.497,2.988-2.209c1.562-1.105,4.153-0.644,4.851,0.86
				c0.246,0.534,0.408,1.106,0.635,1.65c0.232,0.559,0.666,0.815,1.279,0.808c2.19-0.025,4.379-0.087,6.566-0.035
				c2.16,0.05,4.313,0.254,6.473,0.333c1.747,0.062,3.499,0.097,5.241,0.005c0.42-0.025,0.886-0.542,1.196-0.939
				c0.585-0.748,1.065-1.578,1.604-2.366c0.641-0.939,1.531-1.35,2.666-1.19c1.097,0.154,2.198,0.293,3.29,0.482
				c1.121,0.194,1.95,0.701,2.155,1.969c0.128,0.803,0.505,1.563,0.628,2.363c0.073,0.488,0.041,1.144-0.234,1.501
				c-0.691,0.907-1.546,1.69-2.364,2.552c1.357,1.625,2.751,3.4,4.263,5.068c1.24,1.364,1.762,3.052,2.145,4.727
				c0.467,2.035,0.729,4.148,0.791,6.238c0.052,1.802-0.298,3.614-0.466,5.423c-0.093,0.997-0.177,1.991-0.261,2.987
				c-0.175,2.095-0.442,4.168-1.549,6.024c-0.047,0.08-0.057,0.179-0.087,0.269c0.06,0.038,0.118,0.075,0.175,0.112
				c0.62-0.905,1.354-1.754,1.833-2.729c0.558-1.141,0.914-2.384,1.325-3.592c0.612-1.789,1.177-3.594,1.794-5.381
				c0.589-1.705,0.691-3.419,0.223-5.159c-0.086-0.318-0.24-0.622-0.388-0.917c-0.424-0.852-0.333-1.454,0.26-2.207
				c0.422-0.532,0.869-0.74,1.523-0.432c2.137,1.004,4.277,2.003,6.424,2.982c4.325,1.968,7.957,4.928,11.505,8.013
				c0.447,0.385,0.999,0.654,1.422,1.061c1.647,1.589,3.32,3.157,4.869,4.837c1.021,1.108,1.886,2.366,2.738,3.614
				c0.368,0.537,0.592,1.195,0.761,1.832c0.325,1.225,0.999,2.222,1.912,3.311c0.138-0.955,0.086-1.675-0.205-2.451
				c-1.409-3.76-3.951-6.845-5.999-10.222c-0.733-1.21-1.597-2.344-2.415-3.502c-0.13-0.184-0.307-0.358-0.498-0.477
				c-0.445-0.278-0.886-0.631-0.659-1.166c0.229-0.537,0.574-1.175,1.05-1.428c2.648-1.412,5.606-1.882,8.484-2.55
				c3.042-0.711,6.132-1.218,9.18-1.899c2.864-0.639,5.763-0.82,8.673-0.743c2.855,0.077,5.733,0.102,8.557,0.489
				c2.963,0.408,5.876,1.183,8.799,1.859c3.613,0.837,7.061,2.205,10.466,3.633c1.985,0.835,3.83,1.989,5.764,2.95
				c3.623,1.805,6.014,4.958,8.669,7.829c1.104,1.193,2.227,2.368,3.288,3.599c0.552,0.639,1.065,1.337,1.443,2.088
				c0.358,0.721,0.37,1.523-0.005,2.309c-0.786,1.648-1.784,3.132-3.224,4.272c-0.484,0.383-0.54,0.688-0.251,1.213
				c1.293,2.378,2.083,4.953,2.883,7.525c0.645,2.075,1.385,4.126,1.967,6.221c0.718,2.58,1.314,5.194,1.961,7.795
				c0.029,0.124,0.029,0.258,0.017,0.385c-0.174,1.767,0.433,3.449,0.551,5.182c0.016,0.231,0.056,0.463,0.065,0.691
				c0.048,1.287,0.172,2.58,0.117,3.862c-0.064,1.533-0.383,3.057-0.407,4.588c-0.06,3.892,0.024,7.789-0.032,11.681
				c-0.038,2.516-0.396,5.011-1.089,7.429c-0.435,1.517-1.113,2.961-1.66,4.444c-0.714,1.943-1.251,3.904-1.479,5.994
				c-0.219,2.041-0.994,3.994-2.753,5.319c-0.558,0.422-1.159,0.771-1.825,0.032c-0.194-0.214-0.671-0.187-1.02-0.246
				c-1.34-0.229-2.675-0.522-4.023-0.644c-1.086-0.101-2.229-0.146-3.283,0.074c-1.802,0.38-3.564,0.428-5.351,0.062
				c-2.237-0.455-4.473-0.753-6.671,0.158c-1.594,0.664-3.124,0.254-4.541-0.423c-1.605-0.765-3.231-0.4-4.854-0.423
				c-0.659-0.009-1.317,0.051-2.197,0.088c0.259-0.591,0.346-0.945,0.544-1.22c1.036-1.457,2.281-2.64,4.128-3.008
				c0.344-0.066,0.656-0.28,0.992-0.402c0.602-0.222,1.203-0.582,1.812-0.597c1.089-0.024,1.832-0.415,2.538-1.252
				c0.977-1.161,2.114-2.19,3.216-3.236c0.346-0.331,0.79-0.561,1.208-0.806c0.345-0.202,0.716-0.36,1.165-0.581
				c-0.653-0.691-1.282-1.266-1.802-1.927c-1.871-2.396-3.758-4.784-5.538-7.249c-1.003-1.395-1.794-2.943-2.713-4.402
				c-0.505-0.803-1.074-1.562-1.613-2.344c-0.117-0.169-0.266-0.322-0.351-0.507c-1.026-2.214-2.043-4.437-3.069-6.65
				c-0.129-0.276-0.266-0.569-0.47-0.788c-0.634-0.679-0.599-1.437-0.33-2.231c0.636-1.884,1.387-3.735,1.891-5.652
				c0.4-1.521,0.505-3.121,0.743-4.685c0.098-0.634,0.162-1.275,0.312-1.894c0.557-2.312,1.133-4.618,1.725-6.922
				c0.461-1.807,0.979-3.602,1.432-5.413c0.148-0.589,0.208-1.208,0.235-1.817c0.038-0.89,0.011-1.781,0.011-2.671
				c-0.095-0.025-0.189-0.047-0.286-0.072c-0.264,0.735-0.661,1.451-0.766,2.207c-0.261,1.908-0.85,3.71-1.414,5.54
				c-0.626,2.043-0.884,4.197-1.399,6.277c-0.733,2.948-1.396,5.928-2.391,8.788c-0.905,2.602-2.6,4.673-5.222,5.905
				c-2.48,1.168-5.003,2.324-7.28,3.83c-1.844,1.218-3.753,2.185-5.775,3.008c-1.377,0.557-2.669,1.324-4.057,1.858
				c-1.622,0.624-3.305,1.097-4.962,1.628c-0.828,0.267-1.648,0.639-2.499,0.738c-0.777,0.089-1.66,0.04-2.371-0.253
				c-0.683-0.281-0.554-1.139-0.377-1.742c0.631-2.18,1.369-4.33,2.003-6.51c0.552-1.906,1.007-3.835,1.181-5.83
				c0.146-1.653,0.425-3.294,0.641-4.938c0.146-1.111,0.378-2.223,0.405-3.338c0.037-1.621-0.074-3.245-0.129-4.864
				c-0.005-0.145-0.053-0.288-0.278-0.482c-0.214,0.669-0.478,1.327-0.632,2.014c-0.475,2.135-0.935,4.274-1.344,6.427
				c-0.246,1.303-0.301,2.645-0.592,3.935c-0.315,1.412-0.885,2.767-1.203,4.178c-0.828,3.669-2.175,7.176-3.283,10.757
				c-0.528,1.7-1.412,3.311-1.785,5.035c-0.541,2.493-1.512,4.742-2.762,6.939c-0.918,1.615-1.526,3.402-2.367,5.064
				c-0.552,1.092-1.26,2.104-1.92,3.137c-1.05,1.641-2.119,3.269-3.178,4.904c-1.035,1.604-2.719,2.031-4.4,2.592
				c-2.203,0.729-4.324,0.184-6.478-0.072c-2.419-0.286-4.83-0.74-7.258-0.848c-3.341-0.144-6.697-0.094-10.043,0
				c-1.268,0.035-2.525,0.426-3.786,0.659c-0.706,0.128-1.556,0.449-2.005-0.241c-0.43-0.659,0.092-1.377,0.491-1.98
				c0.918-1.402,2.432-1.874,3.891-1.832c1.595,0.047,2.815-0.485,3.946-1.412c2.27-1.858,4.905-2.984,7.617-3.986
				c0.265-0.1,0.571-0.388,0.647-0.651c0.628-2.182,1.209-4.376,1.799-6.571c0.047-0.171,0.075-0.353,0.075-0.531
				c0.002-2.863,0.016-5.729-0.008-8.595c-0.027-3.042-0.273-6.094-0.084-9.119c0.169-2.711,0.48-5.497,1.3-8.067
				C123.873,169.575,125.562,165.917,128.94,163.29z M98.661,115.122c-0.463,0-0.928,0.005-1.392,0
				c-1.47-0.01-1.829,0.303-2.482,1.608c-0.898,1.79-1.939,3.51-2.862,5.292c-0.201,0.39-0.246,0.915-0.21,1.364
				c0.066,0.803,0.359,1.596,0.354,2.394c-0.007,1.008,0.152,1.94,0.59,2.84c0.574,1.183,1.762,1.516,2.856,0.815
				c0.454-0.291,0.945-0.522,1.428-0.768c0.789-0.4,1.57-0.413,2.366,0.018c0.543,0.293,1.116,0.532,1.677,0.795
				c0.749,0.353,1.256,0.221,1.679-0.485c0.539-0.902,1.112-1.797,1.563-2.746c0.763-1.601,1.156-3.306,0.386-4.998
				c-0.658-1.444-1.565-2.776-2.262-4.206C101.577,115.45,100.483,114.634,98.661,115.122z M107.8,113.533
				c-0.251-0.74-0.345-1.419-0.688-1.934c-0.445-0.668-0.989-1.364-1.986-1.22c-1.101,0.162-2.34,1.395-2.383,2.505
				c-0.012,0.363,0.221,0.887,0.507,1.061c0.221,0.135,0.782-0.071,1.054-0.292c0.745-0.607,1.481-0.547,2.039,0.213
				c0.144,0.196,0.521,0.437,0.667,0.373C107.314,114.11,107.534,113.787,107.8,113.533z M88.973,113.881
				c1.322-0.957,1.315-0.942,2.831-0.378c0.247,0.089,0.729,0.067,0.83-0.084c0.201-0.308,0.368-0.775,0.286-1.113
				c-0.328-1.322-2.599-1.971-3.616-1.083C88.582,111.856,88.396,113.344,88.973,113.881z"/>
			<path d="M86.684,156.597c0.021,1.557,0.599,2.961,1.255,4.322c0.949,1.966,2.013,3.877,2.967,5.841
				c1.166,2.403,3.05,4.258,4.663,6.325c1.761,2.257,3.927,4.056,6.112,5.863c1.405,1.163,2.702,2.455,4.051,3.683
				c0.815,0.743,0.882,1.745,0.803,2.704c-0.167,1.991-0.79,3.865-1.971,5.49c-2.577,3.546-5.207,7.059-7.799,10.596
				c-1.032,1.406-1.924,2.925-3.047,4.25c-1.895,2.241-3.924,4.366-5.895,6.544c-0.656,0.728-1.374,1.414-1.943,2.204
				c-1.001,1.39-2.424,1.787-3.994,1.861c-1.596,0.077-3.199,0.015-4.787,0.146c-3.331,0.281-6.647,0.788-10.003,0.627
				c-0.606-0.03-1.252-0.082-1.799-0.315c-1.208-0.515-2.446-0.567-3.712-0.49c-1,0.06-2,0.162-3,0.189
				c-1.047,0.029-2.083,0.065-3.107-0.377c-0.89-0.384-1.838-0.359-2.762,0.12c-0.795,0.413-1.161,0.169-1.178-0.726
				c-0.022-1.263,0.709-2.182,1.674-2.789c1.005-0.633,2.176-0.996,3.254-1.521c0.288-0.139,0.513-0.422,0.741-0.663
				c0.661-0.701,1.273-1.452,1.976-2.107c0.462-0.436,1.039-0.748,1.576-1.104c1.376-0.91,2.815-1.641,4.457-2.031
				c2.269-0.536,4.483-1.31,6.753-1.844c0.887-0.209,1.378-0.529,1.737-1.395c0.575-1.387,1.492-2.64,2.016-4.044
				c0.619-1.662,0.887-3.454,1.464-5.137c0.759-2.215,0.894-4.499,1.092-6.795c0.082-0.952,0.576-1.874,0.629-2.826
				c0.142-2.453,1.166-4.779,0.932-7.294c-0.081-0.878,0.338-1.792,0.478-2.699c0.529-3.473,1.623-6.783,2.761-10.091
				c0.376-1.094,0.402-2.304,0.594-3.462c0.204-1.232,0.346-2.483,0.659-3.691c0.113-0.435,0.619-1.061,0.979-1.083
				C86.097,154.825,86.733,155.767,86.684,156.597z"/>
			<path d="M179.502,182.917c-0.301,1.523-0.524,3.069-0.925,4.568c-0.704,2.631-1.399,5.278-2.313,7.844
				c-0.845,2.368-1.275,4.816-1.901,7.225c-1.024,3.962-2.522,7.794-5.14,11.05c-1.039,1.293-2.461,2.068-4.096,2.197
				c-2.689,0.211-5.391,0.256-8.088,0.386c-0.303,0.012-0.602,0.102-0.899,0.169c-0.323,0.071-0.644,0.23-0.967,0.235
				c-3.248,0.07-6.497,0.159-9.743,0.145c-1.141-0.005-2.274-0.355-3.417-0.418c-0.784-0.042-1.581,0.176-2.374,0.202
				c-0.489,0.015-1.24,0.044-1.409-0.225c-0.221-0.353-0.113-1.049,0.081-1.499c0.869-2.02,2.516-2.97,4.654-3.158
				c0.665-0.057,1.332-0.089,1.993-0.171c0.206-0.025,0.438-0.137,0.586-0.278c2.287-2.205,4.986-3.786,7.785-5.217
				c0.365-0.187,0.75-0.339,1.115-0.523c1.091-0.543,1.158-0.688,0.88-1.893c-0.487-2.091-1.026-4.166-1.437-6.271
				c-0.166-0.846-0.024-1.747-0.069-2.622c-0.02-0.418-0.112-0.838-0.229-1.24c-0.149-0.518,0.534-1.208,1.303-1.464
				c2.482-0.823,4.973-1.628,7.413-2.567c4.192-1.615,7.861-4.218,11.756-6.397c1.337-0.748,2.727-1.419,4.138-2.023
				c0.756-0.323,1.024-0.106,1.153,0.691c0.064,0.402,0.013,0.822,0.013,1.234C179.413,182.904,179.458,182.909,179.502,182.917z"/>
			<path d="M98.668,119.883c0.773,0,1.549-0.035,2.321,0.008c1.153,0.064,1.579,0.773,0.915,1.685
				c-0.873,1.2-1.862,2.321-2.853,3.43c-0.557,0.621-1.277,0.584-1.872,0.055c-0.649-0.579-1.221-1.25-1.81-1.896
				c-0.485-0.532-0.981-1.061-1.403-1.642c-0.18-0.249-0.314-0.677-0.225-0.938c0.082-0.239,0.482-0.487,0.765-0.52
				c1.379-0.149,2.766-0.231,4.15-0.335C98.663,119.782,98.665,119.831,98.668,119.883z"/>
		</g>
	</g>
	<polygon fill="#67865D" points="0.691,0 32.399,31.708 0.691,31.708 	"/>
	<polygon fill="#67865D" points="0.691,38.327 32.399,70.035 0.691,70.035 	"/>
	<polygon fill="#67865D" points="0.691,76.654 32.399,108.361 0.691,108.361 	"/>
	<polygon fill="#67865D" points="0.691,114.982 32.399,146.688 0.691,146.688 	"/>
	<polygon fill="#67865D" points="0.691,153.309 32.399,185.017 0.691,185.017 	"/>
	<polygon fill="#67865D" points="0.691,191.636 32.399,223.344 0.691,223.344 	"/>
	<polygon fill="#67865D" points="0.691,229.965 32.399,261.671 0.691,261.671 	"/>
	<polygon fill="#67865D" points="0.691,268.292 32.399,299.997 0.691,299.997 	"/>
	<polygon fill="#67865D" points="299.908,0 268.203,31.708 299.908,31.708 	"/>
	<polygon fill="#67865D" points="299.908,38.327 268.203,70.035 299.908,70.035 	"/>
	<polygon fill="#67865D" points="299.908,76.654 268.203,108.361 299.908,108.361 	"/>
	<polygon fill="#67865D" points="299.908,114.982 268.203,146.688 299.908,146.688 	"/>
	<polygon fill="#67865D" points="299.908,153.309 268.203,185.017 299.908,185.017 	"/>
	<polygon fill="#67865D" points="299.908,191.636 268.203,223.344 299.908,223.344 	"/>
	<polygon fill="#67865D" points="299.908,229.965 268.203,261.671 299.908,261.671 	"/>
	<polygon fill="#67865D" points="299.908,268.292 268.203,299.997 299.908,299.997 	"/>
</g>
</svg>
