<?xml version="1.0" encoding="utf-8"?>
<!-- Generator: Adobe Illustrator 15.0.2, SVG Export Plug-In . SVG Version: 6.00 Build 0)  -->
<!DOCTYPE svg PUBLIC "-//W3C//DTD SVG 1.1//EN" "http://www.w3.org/Graphics/SVG/1.1/DTD/svg11.dtd">
<svg version="1.1" id="Ebene_1" xmlns="http://www.w3.org/2000/svg" xmlns:xlink="http://www.w3.org/1999/xlink" x="0px" y="0px"
	 width="300px" height="300px" viewBox="0 0 300 300" enable-background="new 0 0 300 300" xml:space="preserve">
<g id="Ebene_2">
	<g id="Ebene_3">
		<rect fill="#161518" width="300" height="300"/>
	</g>
	<g id="Ebene_4">
		<rect fill="#0F1013" width="150" height="300"/>
	</g>
</g>
<g id="Ebene_1_1_">
	<path fill="#FFFFFF" d="M79.668,151.51c-0.391,0.22-0.587,0.606-0.587,1.16v7.251c0,0.019-0.019,0.048-0.058,0.086
		c-0.46,0.346-0.967,0.625-1.504,0.832c-0.548,0.211-1.114,0.369-1.691,0.472c-0.578,0.104-1.162,0.172-1.748,0.201
		c-0.583,0.027-1.151,0.041-1.705,0.041c-0.841,0-1.69-0.028-2.55-0.085c-1.509-0.115-2.871-0.496-4.083-1.146
		c-1.214-0.65-2.246-1.494-3.095-2.536c-0.85-1.041-1.505-2.226-1.963-3.553c-0.458-1.327-0.688-2.728-0.688-4.198
		c0-1.701,0.305-3.204,0.917-4.514c0.611-1.308,1.447-2.407,2.507-3.295c1.061-0.888,2.297-1.556,3.71-2.006
		c1.414-0.449,2.923-0.673,4.528-0.673c0.859,0,1.724,0.048,2.593,0.143c0.856,0.094,1.711,0.199,2.564,0.315
		c0.382,0.057,0.759,0.114,1.132,0.172c0.373,0.058,0.75,0.105,1.132,0.144c0.076,0,0.114,0.039,0.114,0.115
		c-0.038,0.675-0.104,1.35-0.201,2.02c-0.097,0.664-0.191,1.328-0.286,1.993c-0.02,0.133-0.039,0.262-0.057,0.387
		c-0.02,0.124-0.039,0.243-0.058,0.358c0,0.058-0.033,0.091-0.101,0.1c-0.066,0.01-0.11-0.014-0.129-0.071
		c-0.153-0.821-0.43-1.528-0.831-2.121s-0.894-1.084-1.476-1.476c-0.583-0.392-1.237-0.678-1.963-0.86s-1.48-0.273-2.264-0.273
		c-1.317,0-2.545,0.22-3.682,0.659c-1.138,0.44-2.126,1.056-2.966,1.849c-0.841,0.793-1.504,1.748-1.992,2.865
		c-0.486,1.118-0.729,2.345-0.729,3.683c0,1.452,0.267,2.823,0.803,4.112c0.535,1.29,1.265,2.417,2.192,3.382
		c0.927,0.965,2.025,1.728,3.296,2.292c1.269,0.564,2.64,0.845,4.111,0.845c0.63,0,1.27-0.071,1.919-0.215s1.204-0.453,1.662-0.931
		v-6.447c0-0.459-0.144-0.769-0.43-0.932c-0.287-0.162-0.612-0.301-0.975-0.415c-0.156-0.039-0.309-0.086-0.458-0.143
		c-0.153-0.058-0.306-0.135-0.458-0.229c-0.058-0.04-0.077-0.082-0.058-0.13c0.019-0.047,0.058-0.072,0.115-0.072
		c1.146,0,2.278,0.011,3.396,0.03c1.118,0.018,2.25,0.057,3.396,0.114l0.028,0.229C80.503,151.134,80.06,151.29,79.668,151.51
		L79.668,151.51z M94.755,159.118c-0.253-0.02-0.507-0.039-0.76-0.058c-0.157-0.019-0.314-0.033-0.473-0.043
		c-0.167-0.009-0.334-0.014-0.501-0.014c-0.44,0-0.879,0.02-1.318,0.058c-0.439,0.039-0.879,0.077-1.318,0.114
		c-0.057,0-0.096-0.027-0.114-0.085c-0.02-0.058,0-0.105,0.057-0.145l1.118-0.544c-0.323-0.89-0.661-1.773-1.018-2.65
		c-0.36-0.885-0.699-1.779-1.017-2.68H84.97c-0.141,0.366-0.279,0.735-0.416,1.104c-0.187,0.502-0.364,1.008-0.529,1.518
		c-0.162,0.495-0.315,0.991-0.458,1.49c-0.134,0.47-0.201,0.809-0.201,1.018c0,0.287,0.124,0.473,0.373,0.559
		c0.248,0.086,0.487,0.148,0.716,0.186v0.229c-0.363-0.037-0.736-0.07-1.117-0.099c-0.763-0.058-1.53-0.058-2.293,0
		c-0.382,0.028-0.764,0.062-1.146,0.099c-0.057,0.021-0.092-0.008-0.101-0.084c-0.01-0.077,0.014-0.125,0.072-0.145
		c1.05-0.133,1.786-0.688,2.206-1.661v0.027c0.554-1.394,1.089-2.788,1.605-4.184c0.518-1.4,1.024-2.804,1.519-4.212
		c0.344-0.954,0.678-1.905,1.003-2.851c0.328-0.956,0.672-1.907,1.031-2.852c0.019-0.057,0.057-0.086,0.114-0.086
		c0.057,0,0.095,0.029,0.114,0.086c0.094,0.265,0.195,0.527,0.301,0.788c0.106,0.26,0.206,0.523,0.301,0.788
		c0.791,2.159,1.607,4.309,2.45,6.448c0.853,2.162,1.823,4.276,2.909,6.333c0.229,0.439,0.521,0.755,0.873,0.945
		c0.353,0.191,0.76,0.307,1.219,0.344v0.229C95.248,159.128,94.995,159.138,94.755,159.118L94.755,159.118z M87.205,146.167
		c-0.317,0.986-0.628,1.975-0.931,2.965c-0.309,1.005-0.639,2.004-0.989,2.995h3.697L87.205,146.167z M116.194,159.147h-2.32
		c-0.765,0-1.519-0.019-2.264-0.058c-0.115,0-0.153-0.048-0.115-0.145c0.02-0.038,0.034-0.075,0.043-0.113
		c0.01-0.04,0.024-0.078,0.042-0.115l0.172-0.516c0.058-0.173,0.086-0.335,0.086-0.488c0-1.088-0.053-2.163-0.158-3.224
		c-0.106-1.065-0.225-2.131-0.358-3.195c-0.068-0.578-0.14-1.155-0.215-1.733c-0.066-0.505-0.119-1.093-0.158-1.762
		c-0.719,1.383-1.417,2.777-2.092,4.183c-0.668,1.396-1.338,2.809-2.006,4.241c-0.227,0.473-0.451,0.945-0.673,1.419
		c-0.222,0.474-0.447,0.947-0.673,1.418c-0.02,0.039-0.048,0.058-0.086,0.058s-0.076-0.019-0.115-0.058
		c-0.879-1.222-1.639-2.47-2.278-3.739c-0.636-1.262-1.243-2.536-1.82-3.824c-0.277-0.604-0.549-1.211-0.817-1.82
		c-0.267-0.604-0.549-1.201-0.844-1.791c-0.056,0.464-0.114,0.926-0.173,1.389c-0.057,0.45-0.115,0.894-0.172,1.333
		c-0.152,1.173-0.286,2.349-0.401,3.524c-0.116,1.182-0.173,2.367-0.172,3.554c0,0.343,0.086,0.577,0.258,0.702
		c0.171,0.124,0.382,0.234,0.63,0.33c0.076,0.038,0.182,0.08,0.315,0.128c0.134,0.048,0.219,0.081,0.258,0.101
		c0.058,0.039,0.076,0.086,0.058,0.143c-0.02,0.058-0.058,0.086-0.115,0.086c-0.268,0-0.531-0.004-0.788-0.014
		c-0.263-0.011-0.526-0.023-0.789-0.042c-0.267-0.019-0.534-0.034-0.802-0.043c-0.268-0.01-0.536-0.014-0.803-0.014h-0.573
		c-0.173,0-0.363,0.02-0.574,0.058c-0.057,0.019-0.096-0.011-0.115-0.086c-0.019-0.077,0-0.125,0.058-0.144
		c0.153-0.039,0.267-0.058,0.343-0.058c0.184-0.032,0.367-0.075,0.545-0.129c0.152-0.048,0.296-0.176,0.429-0.387
		c0.039-0.059,0.09-0.307,0.158-0.745c0.067-0.44,0.143-0.999,0.229-1.676c0.086-0.679,0.181-1.447,0.286-2.308
		c0.106-0.878,0.207-1.756,0.301-2.637c0.095-0.897,0.19-1.781,0.286-2.65c0.095-0.869,0.182-1.667,0.258-2.393
		c0.077-0.63,0.134-1.189,0.172-1.676s0.077-0.835,0.114-1.046c0-0.057,0.024-0.09,0.072-0.1c0.047-0.01,0.09,0.004,0.129,0.042
		c0.229,0.249,0.553,0.74,0.974,1.476c0.42,0.735,0.874,1.59,1.361,2.564c0.513,1.028,1.02,2.06,1.519,3.094
		c0.487,1.01,0.97,2.022,1.447,3.037c0.325,0.669,0.592,1.242,0.802,1.721c0.21,0.477,0.401,0.878,0.573,1.202
		c0.327-0.656,0.637-1.32,0.932-1.991c0.315-0.717,0.626-1.43,0.932-2.135c0.682-1.576,1.389-3.144,2.121-4.699
		c0.745-1.586,1.537-2.999,2.378-4.241c0.039-0.038,0.076-0.053,0.115-0.042c0.038,0.01,0.057,0.042,0.057,0.1
		c0.039,0.229,0.071,0.549,0.1,0.96c0.028,0.411,0.072,0.884,0.129,1.418c0.058,0.708,0.129,1.481,0.214,2.321
		c0.086,0.84,0.177,1.701,0.272,2.579s0.19,1.733,0.287,2.564c0.086,0.762,0.187,1.521,0.301,2.278
		c0.104,0.688,0.205,1.266,0.301,1.733c0.095,0.469,0.191,0.76,0.287,0.873c0.21,0.307,0.411,0.502,0.602,0.588
		c0.19,0.087,0.42,0.148,0.688,0.188c0.134,0.038,0.272,0.062,0.415,0.07c0.143,0.011,0.291,0.053,0.444,0.129L116.194,159.147
		L116.194,159.147z M125.384,157.701c-0.059,0.424-0.117,0.849-0.172,1.274c0,0.057-0.039,0.086-0.115,0.086l-0.029,0.028
		c-0.153,0.058-0.277,0.086-0.372,0.086c-0.44,0-0.884-0.004-1.333-0.015c-0.444-0.009-0.888-0.014-1.332-0.014
		c-0.382,0-0.755-0.004-1.118-0.014c-0.372-0.009-0.745-0.015-1.117-0.015c-0.517,0-1.037,0.006-1.562,0.015
		c-0.526,0.011-1.046,0.024-1.561,0.042v-0.229c0.287,0,0.52-0.062,0.702-0.187c0.177-0.119,0.32-0.281,0.416-0.473
		c0.095-0.19,0.157-0.405,0.186-0.644c0.028-0.239,0.042-0.483,0.042-0.731v-11.92c0-0.382-0.091-0.629-0.271-0.745
		c-0.186-0.116-0.382-0.212-0.588-0.286l-0.387-0.129c-0.143-0.048-0.292-0.12-0.444-0.215c-0.039-0.038-0.053-0.082-0.043-0.128
		c0.009-0.047,0.043-0.072,0.1-0.072h8.167c0.079-0.039,0.16-0.072,0.244-0.1c0.085-0.029,0.167-0.062,0.243-0.1
		c0.096-0.038,0.144,0,0.144,0.115c-0.053,0.466-0.124,0.93-0.214,1.39c-0.086,0.429-0.177,0.864-0.272,1.303
		c-0.02,0.058-0.062,0.082-0.129,0.072c-0.067-0.01-0.101-0.043-0.101-0.1c-0.038-0.669-0.268-1.108-0.688-1.318
		c-0.42-0.211-0.937-0.315-1.547-0.315h-2.264v5.875h3.324c0.096,0,0.219-0.028,0.373-0.087c0.152-0.057,0.305-0.114,0.458-0.172
		c0.2-0.11,0.411-0.196,0.631-0.257c0.095-0.038,0.144,0,0.144,0.115c-0.02,0.229-0.043,0.478-0.072,0.746
		c-0.026,0.248-0.06,0.497-0.1,0.743c-0.04,0.237-0.068,0.478-0.086,0.717c-0.018,0.24-0.047,0.479-0.086,0.716
		c0,0.059-0.024,0.097-0.072,0.115c-0.048,0.02-0.09,0.01-0.129-0.028c-0.096-0.096-0.158-0.191-0.187-0.287
		c-0.031-0.105-0.065-0.209-0.1-0.314c-0.039-0.114-0.077-0.229-0.114-0.343c-0.039-0.116-0.105-0.22-0.201-0.316
		c-0.096-0.095-0.272-0.167-0.531-0.215c-0.275-0.049-0.552-0.088-0.831-0.114c-0.29-0.028-0.583-0.042-0.875-0.043h-1.518v5.903
		c0.286,0.421,0.692,0.74,1.218,0.961c0.525,0.219,1.036,0.329,1.533,0.329c0.668,0,1.236-0.176,1.705-0.529
		c0.468-0.354,0.778-0.855,0.932-1.506l0.229,0.059C125.52,156.847,125.444,157.272,125.384,157.701L125.384,157.701z
		 M142.857,149.1c-0.012,0.033-0.036,0.046-0.074,0.041c-0.04-0.005-0.058-0.025-0.058-0.058c0-0.361-0.098-0.616-0.296-0.764
		c-0.197-0.148-0.471-0.223-0.821-0.223c-0.154,0-0.299,0.009-0.437,0.025s-0.282,0.035-0.436,0.057
		c-0.109,0.022-0.23,0.039-0.361,0.049c-0.132,0.012-0.252,0.017-0.361,0.017v3.221h2.219c0.077,0,0.165-0.033,0.263-0.098
		c0.098-0.065,0.175-0.132,0.23-0.197c0.021-0.021,0.046-0.028,0.073-0.018c0.027,0.012,0.041,0.035,0.041,0.066
		c-0.041,0.591-0.118,1.178-0.229,1.759c-0.012,0.034-0.036,0.047-0.074,0.041c-0.039-0.005-0.058-0.024-0.058-0.058
		c0.011-0.362-0.08-0.61-0.271-0.749c-0.192-0.137-0.463-0.204-0.814-0.204h-1.38v3.287c0,0.132,0.027,0.27,0.082,0.412
		c0.055,0.144,0.132,0.269,0.23,0.378c0.098,0.11,0.213,0.196,0.345,0.263c0.132,0.065,0.274,0.099,0.427,0.099v0.132h-0.114
		c-0.121,0-0.236-0.007-0.345-0.016c-0.11-0.012-0.226-0.022-0.345-0.034c-0.115-0.01-0.23-0.019-0.345-0.023
		c-0.11-0.007-0.22-0.009-0.33-0.009c-0.109,0-0.219,0.005-0.329,0.016l-0.328,0.033c-0.251,0.021-0.504,0.032-0.756,0.033h-0.098
		c-0.033,0-0.052-0.02-0.058-0.058c-0.006-0.039,0.008-0.063,0.041-0.074c0.196-0.033,0.35-0.073,0.46-0.123
		c0.109-0.049,0.189-0.115,0.238-0.198c0.049-0.081,0.076-0.186,0.082-0.312c0.005-0.125,0.008-0.288,0.008-0.484v-6.872
		c0-0.252-0.049-0.409-0.148-0.469c-0.107-0.063-0.224-0.11-0.345-0.14c-0.068-0.026-0.137-0.051-0.206-0.074
		c-0.09-0.031-0.175-0.072-0.254-0.123c-0.033-0.022-0.043-0.047-0.033-0.074c0.011-0.027,0.033-0.042,0.065-0.042
		c0.691,0.034,1.386,0.05,2.088,0.05h1.167c0.055,0,0.112,0.003,0.173,0.009c0.06,0.005,0.123,0.008,0.189,0.008
		c0.252,0.012,0.513,0.012,0.781,0c0.268-0.011,0.501-0.071,0.698-0.181c0.022-0.022,0.046-0.022,0.074,0s0.036,0.05,0.024,0.083
		L142.857,149.1L142.857,149.1z"/>
	<path fill="#FFFFFF" d="M232.546,141.009c-0.02,0.674-0.11,1.28-0.271,1.823c-0.02,0.061-0.06,0.091-0.12,0.091
		c-0.062,0-0.101-0.03-0.122-0.091c-0.1-0.502-0.256-0.909-0.467-1.219c-0.205-0.306-0.478-0.559-0.797-0.737
		c-0.322-0.181-0.684-0.306-1.085-0.377c-0.418-0.071-0.842-0.106-1.266-0.105h-76.416v17.59c0,0.804,0.256,1.486,0.769,2.049
		c0.511,0.562,1.148,0.904,1.912,1.024c0.061,0.021,0.085,0.065,0.075,0.135c-0.011,0.071-0.045,0.105-0.105,0.105
		c-0.707-0.061-1.415-0.11-2.123-0.15c-0.713-0.039-1.432-0.06-2.155-0.06c-0.522,0-1.039,0.016-1.551,0.045
		c-0.512,0.03-1.029,0.065-1.551,0.104c-0.061,0-0.095-0.034-0.105-0.104s0.016-0.115,0.076-0.135
		c0.482-0.101,0.858-0.211,1.129-0.333c0.272-0.121,0.472-0.28,0.603-0.481c0.131-0.2,0.212-0.457,0.242-0.768
		c0.03-0.312,0.045-0.709,0.045-1.19v-17.802h-4.97c-0.643,0-1.211,0.226-1.702,0.678c-0.492,0.451-0.858,0.958-1.099,1.521
		c-0.04,0.06-0.086,0.085-0.136,0.075c-0.05-0.011-0.075-0.045-0.075-0.105c-0.04-0.201-0.061-0.381-0.061-0.543
		c0-0.401,0.05-0.792,0.15-1.174c0.157-0.591,0.328-1.178,0.513-1.762c0.06-0.19,0.11-0.376,0.15-0.557
		c0.04-0.12,0.1-0.141,0.18-0.06c0.422,0.261,0.833,0.427,1.235,0.497c0.402,0.07,0.864,0.105,1.386,0.105h85.845
		c0.161,0,0.335-0.025,0.527-0.075c0.19-0.05,0.366-0.095,0.527-0.136c0.114-0.022,0.229-0.042,0.347-0.06
		c0.129-0.02,0.266-0.04,0.405-0.061c0.061,0,0.092,0.041,0.092,0.121v0.241C232.575,139.755,232.565,140.383,232.546,141.009
		L232.546,141.009z"/>
	<path fill="#FFFFFF" d="M170.459,159.232c-1.002-0.059-2.005-0.085-3.009-0.087c-0.363,0-0.721,0.006-1.074,0.015
		c-0.354,0.011-0.723,0.023-1.104,0.042c-0.058,0-0.09-0.032-0.1-0.099c-0.011-0.066,0.015-0.11,0.072-0.13
		c0.591-0.172,0.974-0.401,1.146-0.687c0.173-0.287,0.257-0.735,0.257-1.348v-5.96h-8.796v6.018c0,1.203,0.62,1.862,1.861,1.978
		c0.059,0,0.087,0.038,0.087,0.115c0,0.075-0.028,0.114-0.087,0.114h-0.889c-0.268,0-0.553,0.01-0.858,0.028
		c-0.211,0-0.455,0.005-0.732,0.014c-0.276,0.011-0.521,0.014-0.729,0.014h-0.716c-0.249,0-0.497-0.01-0.745-0.028
		c-0.077,0-0.168-0.005-0.272-0.014c-0.091-0.009-0.182-0.013-0.272-0.014c-0.059,0-0.091-0.033-0.1-0.101
		c-0.011-0.066,0.014-0.109,0.071-0.128c0.305-0.059,0.553-0.12,0.743-0.188c0.191-0.066,0.336-0.161,0.431-0.286
		c0.096-0.123,0.157-0.281,0.187-0.473c0.028-0.191,0.042-0.439,0.042-0.745v-12.207c0-0.419-0.167-0.735-0.501-0.945
		c-0.335-0.209-0.692-0.325-1.074-0.343v-0.229c0.802,0.057,1.595,0.086,2.378,0.086c0.325,0,0.649-0.004,0.975-0.014
		s0.649-0.014,0.975-0.014h0.603c0.058,0,0.086,0.039,0.086,0.115c0,0.077-0.028,0.115-0.086,0.115
		c-0.345,0-0.655,0.105-0.932,0.315s-0.415,0.506-0.415,0.888v4.986h8.768v-4.872c0-0.459-0.119-0.75-0.357-0.874
		c-0.24-0.124-0.53-0.234-0.873-0.329c-0.073-0.018-0.146-0.038-0.216-0.058c-0.07-0.02-0.144-0.039-0.216-0.057
		c-0.057-0.02-0.08-0.062-0.07-0.129s0.042-0.1,0.1-0.1c1.273,0.081,2.551,0.104,3.825,0.072c0.392-0.011,0.778-0.024,1.16-0.043
		c0.059,0,0.092,0.034,0.102,0.101c0.009,0.066-0.014,0.11-0.071,0.128c-0.421,0.076-0.755,0.186-1.003,0.33
		c-0.249,0.144-0.372,0.454-0.372,0.931v11.749c0,0.65,0.143,1.138,0.429,1.461c0.286,0.325,0.754,0.545,1.404,0.659
		L170.459,159.232L170.459,159.232z M185.828,159.447c-0.342,0.085-0.693,0.128-1.046,0.129c-0.574,0-1.089-0.105-1.547-0.314
		c-0.459-0.211-0.87-0.478-1.233-0.803c-0.362-0.325-0.702-0.698-1.017-1.117c-0.315-0.42-0.615-0.851-0.902-1.29
		c-0.271-0.404-0.552-0.801-0.845-1.188c-0.298-0.392-0.621-0.745-0.975-1.061s-0.736-0.568-1.146-0.76
		c-0.412-0.19-0.874-0.286-1.391-0.286h-0.459c-0.134,0-0.276,0.019-0.431,0.058v4.069c0,0.554,0.167,1.026,0.502,1.418
		c0.335,0.391,0.778,0.615,1.332,0.674v0.229c-0.433-0.038-0.869-0.07-1.303-0.101c-0.435-0.028-0.869-0.043-1.305-0.043
		c-0.439,0-0.864,0.02-1.274,0.058c-0.411,0.039-0.835,0.087-1.274,0.144c-0.058,0.02-0.1-0.004-0.128-0.071
		c-0.03-0.067-0.015-0.12,0.041-0.157c0.401-0.191,0.737-0.478,1.005-0.861c0.267-0.381,0.4-0.791,0.4-1.231v-11.433
		c0-0.44-0.158-0.826-0.473-1.161c-0.314-0.334-0.692-0.559-1.132-0.674c-0.057-0.019-0.083-0.062-0.072-0.128
		c0.011-0.067,0.042-0.101,0.101-0.101h5.646c0.591,0,1.174,0.072,1.747,0.215c0.574,0.144,1.079,0.368,1.52,0.674
		c0.438,0.306,0.792,0.707,1.06,1.204c0.267,0.497,0.401,1.089,0.401,1.776c0,0.917-0.254,1.787-0.76,2.607
		c-0.507,0.822-1.075,1.528-1.705,2.121c0.211,0.229,0.439,0.521,0.688,0.873c0.262,0.371,0.528,0.74,0.803,1.104
		c0.436,0.594,0.88,1.181,1.332,1.762c0.468,0.603,0.96,1.146,1.477,1.633c0.515,0.487,1.05,0.87,1.604,1.146
		c0.555,0.278,1.117,0.379,1.691,0.303l0.086,0.229C186.52,159.243,186.178,159.363,185.828,159.447z M179.38,146.883
		c-0.143-0.497-0.357-0.946-0.644-1.347c-0.283-0.397-0.645-0.734-1.062-0.989c-0.419-0.257-0.906-0.387-1.462-0.387
		c-0.229,0-0.457,0.014-0.686,0.042s-0.451,0.092-0.659,0.187v7.135c0.325,0.057,0.64,0.096,0.945,0.114
		c0.314,0.02,0.629,0.03,0.944,0.029c1.07,0,1.811-0.291,2.222-0.874c0.411-0.582,0.616-1.39,0.616-2.421
		C179.596,147.876,179.523,147.379,179.38,146.883L179.38,146.883z M200.382,154.891c-0.449,0.947-1.046,1.763-1.791,2.451
		c-0.744,0.688-1.608,1.223-2.593,1.604c-0.984,0.384-2.021,0.575-3.108,0.575c-0.899,0-1.831-0.221-2.795-0.659
		c-0.964-0.439-1.857-1.019-2.65-1.721c-0.802-0.706-1.466-1.509-1.992-2.405c-0.525-0.898-0.788-1.807-0.788-2.724
		c0-1.394,0.128-2.593,0.387-3.595c0.258-1.004,0.674-1.853,1.246-2.551c0.574-0.698,1.327-1.271,2.265-1.719
		c0.936-0.449,2.081-0.817,3.438-1.104l0.374-0.029c1.222-0.095,2.359,0.082,3.409,0.531c1.051,0.449,1.968,1.08,2.752,1.891
		c0.782,0.812,1.398,1.772,1.848,2.879c0.447,1.108,0.673,2.272,0.673,3.496C201.056,152.919,200.831,153.946,200.382,154.891
		L200.382,154.891z M192.604,143.96c-0.239,0.004-0.478,0.02-0.715,0.048v14.466c0.231,0.049,0.47,0.084,0.715,0.105V143.96z
		 M194.311,158.504c0.511-0.09,0.982-0.244,1.416-0.46c0.744-0.372,1.37-0.87,1.876-1.489c0.506-0.622,0.889-1.343,1.146-2.164
		s0.387-1.69,0.387-2.608c0-0.937-0.139-1.871-0.415-2.808c-0.276-0.936-0.688-1.777-1.232-2.522
		c-0.544-0.744-1.213-1.347-2.006-1.805c-0.367-0.213-0.762-0.377-1.171-0.488L194.311,158.504L194.311,158.504z M193.813,144.049
		c-0.236-0.04-0.474-0.067-0.713-0.08v14.633h0.046c0.229,0,0.451-0.012,0.667-0.031V144.049L193.813,144.049z M191.397,144.085
		c-0.444,0.089-0.858,0.223-1.245,0.404c-0.755,0.354-1.391,0.841-1.906,1.461c-0.517,0.621-0.912,1.337-1.189,2.149
		c-0.277,0.812-0.415,1.676-0.415,2.593c0,0.955,0.145,1.901,0.43,2.837c0.287,0.937,0.711,1.78,1.275,2.536
		c0.563,0.754,1.246,1.365,2.049,1.834c0.316,0.184,0.653,0.334,1.002,0.443V144.085L191.397,144.085z M218.054,143.773
		c-0.01-0.01-0.033-0.004-0.07,0.014c-0.286,0.083-0.569,0.178-0.846,0.287c-0.297,0.114-0.444,0.314-0.444,0.602l0.03,6.906v1.175
		c0,1.095-0.021,2.188-0.059,3.281c-0.038,1.085-0.105,2.169-0.2,3.252c0,0.039-0.024,0.072-0.072,0.101
		c-0.047,0.027-0.091,0.024-0.129-0.015c-0.917-0.783-1.834-1.628-2.751-2.536c-0.92-0.909-1.822-1.835-2.708-2.779
		c-0.887-0.942-1.76-1.898-2.622-2.865c-0.831-0.932-1.651-1.873-2.463-2.822c-0.249-0.264-0.487-0.537-0.716-0.817
		c-0.23-0.28-0.47-0.553-0.717-0.816c-0.057,0.495-0.085,0.992-0.086,1.489c0,0.727,0.009,1.452,0.029,2.178
		c0.018,0.726,0.046,1.452,0.085,2.178c0.077,1.459,0.115,2.921,0.114,4.382c0,0.325,0.029,0.589,0.086,0.789
		c0.058,0.201,0.129,0.358,0.215,0.473c0.087,0.115,0.191,0.197,0.315,0.245c0.124,0.047,0.254,0.081,0.387,0.099
		c0.153,0.038,0.307,0.082,0.459,0.13c0.153,0.047,0.334,0.147,0.545,0.3c0.039,0.039,0.052,0.081,0.042,0.13
		c-0.01,0.047-0.042,0.071-0.1,0.071c-0.191-0.02-0.378-0.039-0.559-0.059c-0.182-0.018-0.368-0.038-0.56-0.058
		c-0.271-0.038-0.543-0.066-0.815-0.086c-0.273-0.018-0.545-0.028-0.818-0.028c-0.354,0.001-0.709,0.024-1.06,0.072
		c-0.363,0.047-0.728,0.1-1.089,0.156c-0.058,0.021-0.101,0-0.128-0.057c-0.029-0.059-0.025-0.105,0.013-0.144
		c0.152-0.134,0.291-0.238,0.415-0.314c0.117-0.072,0.236-0.14,0.359-0.201c0.229-0.114,0.434-0.272,0.615-0.473
		s0.272-0.521,0.272-0.96v-13.41l0.229-0.459c0.019-0.038,0.048-0.066,0.086-0.085s0.067-0.01,0.087,0.028
		c2.033,2.107,4.05,4.233,6.045,6.375c1.997,2.145,3.976,4.31,5.933,6.489v-0.084c0-0.879-0.006-1.749-0.015-2.609
		c-0.009-0.859-0.024-1.738-0.042-2.636c-0.02-0.821-0.039-1.695-0.058-2.622c-0.019-0.926-0.028-1.801-0.028-2.622
		c0-0.325-0.034-0.587-0.101-0.788c-0.067-0.201-0.157-0.354-0.272-0.459c-0.114-0.104-0.239-0.176-0.372-0.214
		c-0.132-0.038-0.266-0.067-0.401-0.087c-0.141-0.016-0.279-0.04-0.415-0.071c-0.126-0.029-0.24-0.094-0.33-0.187
		c-0.038-0.038-0.043-0.086-0.014-0.144c0.028-0.057,0.062-0.076,0.101-0.057c0.438,0.057,0.849,0.086,1.231,0.086h1.204
		c0.248,0,0.501-0.005,0.76-0.015c0.262-0.009,0.524-0.004,0.788,0.015c0.096,0,0.2,0.004,0.315,0.014
		c0.104,0.01,0.209,0.014,0.314,0.015l0.059,0.229C218.088,143.778,218.064,143.784,218.054,143.773L218.054,143.773z
		 M228.903,157.701c-0.059,0.424-0.116,0.849-0.172,1.274c0,0.057-0.039,0.086-0.115,0.086l-0.028,0.028
		c-0.152,0.058-0.277,0.086-0.372,0.086c-0.439,0-0.884-0.004-1.333-0.015c-0.444-0.009-0.888-0.014-1.332-0.014
		c-0.382,0-0.754-0.004-1.117-0.014c-0.372-0.009-0.744-0.015-1.117-0.015c-0.516,0-1.036,0.006-1.562,0.015
		c-0.525,0.011-1.046,0.024-1.562,0.042v-0.229c0.286,0,0.521-0.062,0.702-0.187c0.177-0.119,0.32-0.281,0.415-0.473
		c0.096-0.19,0.158-0.405,0.187-0.644c0.029-0.239,0.044-0.483,0.044-0.731v-11.92c0-0.382-0.092-0.629-0.272-0.745
		c-0.187-0.116-0.384-0.212-0.588-0.286l-0.388-0.129c-0.144-0.048-0.29-0.12-0.443-0.215c-0.039-0.038-0.053-0.082-0.043-0.128
		c0.01-0.047,0.043-0.072,0.101-0.072h8.166c0.077-0.038,0.158-0.071,0.244-0.1c0.084-0.027,0.164-0.061,0.243-0.1
		c0.096-0.038,0.145,0,0.145,0.115c-0.054,0.466-0.126,0.93-0.216,1.39c-0.087,0.429-0.178,0.864-0.272,1.303
		c-0.02,0.058-0.063,0.082-0.129,0.072c-0.067-0.01-0.1-0.043-0.1-0.1c-0.039-0.669-0.268-1.108-0.688-1.318
		c-0.421-0.211-0.938-0.315-1.548-0.315h-2.264v5.875h3.325c0.094,0,0.22-0.028,0.371-0.087l0.46-0.172
		c0.198-0.11,0.41-0.196,0.629-0.257c0.096-0.038,0.143,0,0.143,0.115c-0.018,0.229-0.041,0.478-0.07,0.746
		c-0.026,0.248-0.06,0.497-0.1,0.743c-0.041,0.237-0.068,0.478-0.087,0.717c-0.018,0.24-0.047,0.479-0.086,0.716
		c0,0.059-0.024,0.097-0.072,0.115c-0.048,0.021-0.091,0.01-0.128-0.028c-0.096-0.096-0.157-0.191-0.187-0.287
		c-0.032-0.104-0.066-0.209-0.1-0.314c-0.039-0.114-0.077-0.229-0.115-0.343c-0.038-0.116-0.104-0.22-0.2-0.316
		c-0.097-0.095-0.272-0.167-0.53-0.215c-0.274-0.049-0.552-0.088-0.83-0.114c-0.291-0.028-0.583-0.042-0.875-0.043h-1.518v5.903
		c0.286,0.421,0.691,0.74,1.218,0.961c0.524,0.219,1.036,0.329,1.533,0.329c0.668,0,1.236-0.176,1.705-0.529
		c0.467-0.354,0.777-0.855,0.931-1.506l0.229,0.059C229.04,156.847,228.964,157.272,228.903,157.701L228.903,157.701z
		 M239.475,156.854c-0.354,0.554-0.803,1.028-1.348,1.42c-0.545,0.391-1.146,0.697-1.806,0.916c-0.659,0.22-1.285,0.331-1.877,0.331
		c-0.286,0-0.587-0.034-0.901-0.101c-0.316-0.067-0.603-0.177-0.861-0.33c-0.257-0.152-0.468-0.349-0.629-0.588
		c-0.163-0.238-0.244-0.54-0.244-0.901c0-0.23,0.024-0.46,0.071-0.688s0.091-0.448,0.129-0.659l0.144-0.687
		c0-0.058,0.038-0.087,0.114-0.087s0.115,0.029,0.115,0.087v0.43c0,0.4,0.087,0.755,0.257,1.06c0.169,0.303,0.393,0.568,0.659,0.788
		c0.268,0.221,0.578,0.382,0.932,0.487c0.354,0.104,0.711,0.157,1.075,0.157c0.344,0,0.697-0.057,1.06-0.171
		c0.355-0.112,0.689-0.281,0.989-0.502c0.294-0.218,0.541-0.49,0.729-0.803c0.191-0.314,0.287-0.663,0.287-1.046
		c0-0.362-0.086-0.721-0.258-1.075c-0.172-0.353-0.4-0.71-0.688-1.073c-0.303-0.382-0.629-0.746-0.974-1.089
		c-0.368-0.367-0.74-0.73-1.118-1.089c-0.402-0.386-0.805-0.772-1.202-1.161c-0.402-0.391-0.755-0.792-1.062-1.203
		c-0.305-0.411-0.554-0.826-0.744-1.247c-0.191-0.42-0.286-0.849-0.286-1.289c0-0.649,0.182-1.208,0.545-1.676
		c0.362-0.468,0.812-0.85,1.347-1.146c0.534-0.296,1.116-0.516,1.748-0.658c0.63-0.144,1.213-0.215,1.749-0.215
		c0.764,0,1.461,0.096,2.092,0.287c0.058,0.039,0.086,0.076,0.086,0.115c-0.08,0.969-0.195,1.934-0.344,2.894
		c-0.019,0.057-0.058,0.086-0.114,0.086c-0.058,0-0.097-0.029-0.115-0.086c-0.153-0.668-0.443-1.242-0.874-1.72
		c-0.43-0.477-0.999-0.716-1.705-0.716c-0.726,0-1.332,0.234-1.819,0.702s-0.73,1.065-0.73,1.791c0,0.382,0.08,0.736,0.243,1.06
		c0.162,0.325,0.373,0.64,0.631,0.946c0.257,0.306,0.559,0.606,0.902,0.902c0.352,0.304,0.705,0.604,1.06,0.903
		c0.405,0.329,0.802,0.668,1.189,1.017c0.38,0.341,0.73,0.715,1.046,1.117c0.3,0.384,0.55,0.802,0.746,1.246
		c0.189,0.44,0.285,0.917,0.285,1.434C240.004,155.689,239.827,156.3,239.475,156.854L239.475,156.854z M137.304,154.171
		c-0.254,0.538-0.594,1.002-1.018,1.393s-0.915,0.694-1.474,0.912c-0.559,0.218-1.148,0.325-1.768,0.325
		c-0.51,0-1.039-0.123-1.587-0.373c-0.548-0.251-1.056-0.579-1.506-0.979c-0.456-0.4-0.833-0.857-1.131-1.367
		c-0.299-0.512-0.448-1.026-0.448-1.547c0-0.793,0.074-1.474,0.221-2.044c0.146-0.57,0.382-1.053,0.708-1.45
		c0.326-0.396,0.754-0.721,1.286-0.977c0.532-0.255,1.184-0.464,1.955-0.627l0.212-0.016c0.695-0.054,1.341,0.045,1.938,0.301
		c0.588,0.25,1.12,0.615,1.563,1.075c0.445,0.462,0.795,1.007,1.05,1.637c0.255,0.629,0.382,1.291,0.382,1.987
		C137.688,153.051,137.56,153.634,137.304,154.171L137.304,154.171z M132.884,147.96c-0.139,0.002-0.274,0.011-0.406,0.026v8.223
		c0.131,0.027,0.267,0.047,0.405,0.06L132.884,147.96z M133.854,156.225c0.28-0.048,0.551-0.136,0.805-0.262
		c0.424-0.213,0.779-0.494,1.066-0.846c0.289-0.354,0.505-0.763,0.652-1.23c0.147-0.466,0.22-0.961,0.22-1.482
		c0-0.531-0.079-1.063-0.235-1.595c-0.158-0.532-0.391-1.01-0.701-1.433c-0.304-0.419-0.692-0.769-1.14-1.027
		c-0.208-0.121-0.432-0.213-0.666-0.277L133.854,156.225L133.854,156.225z M133.572,148.009c-0.134-0.022-0.27-0.038-0.405-0.045
		v8.316h0.026c0.13,0,0.256-0.006,0.379-0.017L133.572,148.009z M132.198,148.03c-0.244,0.047-0.482,0.125-0.708,0.229
		c-0.429,0.201-0.79,0.478-1.083,0.831c-0.293,0.353-0.519,0.76-0.676,1.221c-0.158,0.46-0.237,0.953-0.237,1.473
		c0,0.543,0.082,1.081,0.244,1.613c0.163,0.531,0.404,1.013,0.725,1.44c0.314,0.423,0.709,0.776,1.165,1.042
		c0.18,0.105,0.371,0.189,0.57,0.253V148.03z"/>
</g>
</svg>
