<?xml version="1.0" encoding="utf-8"?>
<!-- Generator: Adobe Illustrator 15.0.0, SVG Export Plug-In . SVG Version: 6.00 Build 0)  -->
<!DOCTYPE svg PUBLIC "-//W3C//DTD SVG 1.1//EN" "http://www.w3.org/Graphics/SVG/1.1/DTD/svg11.dtd">
<svg version="1.1" id="Ebene_1" xmlns="http://www.w3.org/2000/svg" xmlns:xlink="http://www.w3.org/1999/xlink" x="0px" y="0px"
	 width="300px" height="300px" viewBox="0 0 300 300" enable-background="new 0 0 300 300" xml:space="preserve">
<g id="Ebene_2">
	<g id="Ebene_3">
		<rect x="0" fill="#1B1A1C" width="300" height="300"/>
	</g>
	<g id="Ebene_4">
		<rect x="0" fill="#0F1013" width="150" height="300"/>
	</g>
</g>
<g id="Ebene_1_1_">
	<path fill="#FFFFFF" d="M79.668,151.51c-0.392,0.221-0.587,0.605-0.587,1.16v7.251c0,0.019-0.02,0.048-0.059,0.086
		c-0.46,0.347-0.967,0.625-1.504,0.832c-0.548,0.211-1.114,0.369-1.69,0.472c-0.578,0.104-1.162,0.172-1.748,0.201
		c-0.583,0.027-1.151,0.041-1.705,0.041c-0.841,0-1.69-0.027-2.55-0.084c-1.51-0.115-2.871-0.496-4.083-1.146
		c-1.215-0.65-2.246-1.494-3.096-2.536c-0.85-1.041-1.505-2.226-1.963-3.554c-0.458-1.326-0.688-2.728-0.688-4.197
		c0-1.701,0.305-3.204,0.917-4.514c0.61-1.308,1.446-2.407,2.507-3.295c1.061-0.888,2.297-1.556,3.71-2.006
		c1.414-0.449,2.923-0.673,4.528-0.673c0.858,0,1.724,0.048,2.593,0.143c0.855,0.094,1.711,0.199,2.563,0.315
		c0.382,0.057,0.76,0.114,1.132,0.172c0.373,0.058,0.75,0.105,1.133,0.144c0.075,0,0.113,0.039,0.113,0.115
		c-0.038,0.675-0.104,1.35-0.2,2.02c-0.098,0.664-0.191,1.328-0.286,1.993c-0.021,0.133-0.039,0.262-0.058,0.387
		c-0.02,0.124-0.039,0.243-0.058,0.358c0,0.058-0.033,0.091-0.101,0.1c-0.066,0.01-0.11-0.014-0.13-0.071
		c-0.152-0.821-0.43-1.528-0.831-2.121c-0.4-0.593-0.894-1.084-1.476-1.476c-0.583-0.392-1.237-0.678-1.963-0.86
		s-1.48-0.273-2.264-0.273c-1.317,0-2.545,0.22-3.683,0.659c-1.138,0.44-2.126,1.056-2.966,1.849
		c-0.841,0.793-1.504,1.748-1.992,2.865c-0.485,1.118-0.729,2.345-0.729,3.683c0,1.452,0.267,2.823,0.803,4.112
		c0.535,1.29,1.265,2.417,2.192,3.382c0.927,0.965,2.024,1.729,3.296,2.292c1.269,0.563,2.64,0.845,4.11,0.845
		c0.631,0,1.271-0.07,1.919-0.215c0.649-0.145,1.204-0.453,1.662-0.931v-6.447c0-0.459-0.144-0.769-0.43-0.933
		c-0.287-0.161-0.612-0.301-0.975-0.414c-0.156-0.039-0.31-0.086-0.458-0.143c-0.153-0.059-0.307-0.136-0.458-0.229
		c-0.059-0.04-0.077-0.082-0.059-0.13c0.02-0.047,0.059-0.072,0.115-0.072c1.146,0,2.278,0.012,3.396,0.029
		c1.117,0.019,2.25,0.058,3.396,0.115l0.028,0.229C80.503,151.135,80.06,151.29,79.668,151.51L79.668,151.51z M94.755,159.118
		c-0.253-0.021-0.507-0.039-0.76-0.058c-0.157-0.02-0.314-0.033-0.474-0.043c-0.167-0.01-0.334-0.015-0.501-0.015
		c-0.439,0-0.879,0.021-1.317,0.058c-0.439,0.039-0.879,0.078-1.318,0.114c-0.057,0-0.096-0.026-0.114-0.085
		c-0.02-0.059,0-0.105,0.058-0.145l1.117-0.545c-0.322-0.889-0.66-1.772-1.018-2.649c-0.36-0.886-0.699-1.778-1.017-2.681H84.97
		c-0.141,0.367-0.279,0.736-0.416,1.104c-0.187,0.503-0.364,1.009-0.529,1.519c-0.162,0.494-0.314,0.99-0.458,1.49
		c-0.134,0.469-0.2,0.809-0.2,1.018c0,0.287,0.124,0.473,0.372,0.559s0.487,0.148,0.717,0.186v0.23
		c-0.363-0.037-0.736-0.07-1.117-0.1c-0.763-0.059-1.53-0.059-2.293,0c-0.382,0.027-0.765,0.062-1.146,0.1
		c-0.057,0.02-0.092-0.009-0.101-0.085c-0.01-0.077,0.014-0.125,0.072-0.146c1.05-0.133,1.785-0.688,2.206-1.66v0.027
		c0.554-1.395,1.089-2.789,1.604-4.185c0.519-1.399,1.024-2.804,1.52-4.212c0.344-0.954,0.678-1.905,1.003-2.851
		c0.327-0.956,0.672-1.907,1.03-2.852c0.02-0.057,0.058-0.086,0.114-0.086s0.095,0.029,0.114,0.086
		c0.094,0.265,0.195,0.527,0.301,0.788c0.106,0.26,0.206,0.523,0.301,0.788c0.791,2.159,1.607,4.309,2.45,6.447
		c0.854,2.162,1.823,4.277,2.909,6.334c0.229,0.438,0.521,0.754,0.873,0.945c0.353,0.19,0.76,0.307,1.219,0.344v0.229
		C95.248,159.128,94.995,159.139,94.755,159.118L94.755,159.118z M87.205,146.167c-0.317,0.986-0.628,1.975-0.932,2.965
		c-0.309,1.005-0.639,2.005-0.988,2.995h3.696L87.205,146.167z M116.194,159.146h-2.319c-0.766,0-1.52-0.019-2.265-0.058
		c-0.114,0-0.152-0.048-0.114-0.146c0.02-0.037,0.033-0.074,0.043-0.112c0.01-0.04,0.023-0.078,0.042-0.115l0.172-0.517
		c0.058-0.172,0.086-0.334,0.086-0.487c0-1.088-0.053-2.163-0.158-3.224c-0.105-1.065-0.225-2.131-0.358-3.195
		c-0.067-0.578-0.14-1.155-0.215-1.733c-0.065-0.505-0.119-1.093-0.157-1.762c-0.72,1.383-1.417,2.776-2.093,4.183
		c-0.668,1.396-1.338,2.81-2.006,4.242c-0.227,0.473-0.451,0.944-0.673,1.418c-0.222,0.475-0.447,0.947-0.673,1.418
		c-0.021,0.039-0.048,0.059-0.086,0.059s-0.076-0.02-0.115-0.059c-0.879-1.222-1.639-2.47-2.278-3.738
		c-0.636-1.262-1.242-2.536-1.819-3.824c-0.277-0.604-0.549-1.211-0.817-1.82c-0.267-0.604-0.549-1.201-0.844-1.791
		c-0.057,0.464-0.114,0.926-0.173,1.389c-0.058,0.45-0.115,0.894-0.172,1.333c-0.152,1.172-0.286,2.349-0.401,3.523
		c-0.116,1.182-0.173,2.367-0.172,3.555c0,0.342,0.086,0.576,0.258,0.701c0.171,0.125,0.382,0.234,0.63,0.33
		c0.076,0.038,0.182,0.08,0.315,0.129c0.134,0.047,0.219,0.08,0.258,0.1c0.058,0.039,0.076,0.086,0.058,0.144
		c-0.02,0.058-0.058,0.086-0.114,0.086c-0.269,0-0.531-0.004-0.788-0.014c-0.264-0.011-0.526-0.022-0.789-0.042
		c-0.268-0.02-0.534-0.034-0.803-0.043c-0.268-0.01-0.535-0.014-0.803-0.014h-0.573c-0.173,0-0.362,0.02-0.573,0.058
		c-0.058,0.019-0.097-0.011-0.115-0.087c-0.02-0.076,0-0.125,0.058-0.143c0.153-0.039,0.268-0.059,0.343-0.059
		c0.185-0.032,0.367-0.075,0.546-0.129c0.151-0.049,0.296-0.176,0.429-0.387c0.039-0.06,0.09-0.308,0.158-0.746
		c0.066-0.439,0.143-0.998,0.229-1.676c0.086-0.679,0.181-1.447,0.286-2.308c0.106-0.878,0.207-1.756,0.301-2.638
		c0.096-0.896,0.19-1.78,0.286-2.649c0.095-0.869,0.182-1.667,0.258-2.393c0.077-0.63,0.135-1.188,0.172-1.676
		c0.038-0.487,0.077-0.835,0.114-1.046c0-0.057,0.024-0.09,0.072-0.1c0.047-0.01,0.09,0.004,0.129,0.042
		c0.229,0.249,0.553,0.74,0.974,1.476c0.42,0.735,0.874,1.59,1.361,2.564c0.513,1.028,1.02,2.06,1.519,3.094
		c0.487,1.01,0.971,2.022,1.447,3.037c0.325,0.669,0.592,1.242,0.802,1.722c0.21,0.477,0.401,0.877,0.573,1.201
		c0.327-0.656,0.637-1.32,0.933-1.99c0.314-0.717,0.626-1.431,0.932-2.135c0.682-1.576,1.389-3.145,2.121-4.7
		c0.745-1.586,1.537-2.999,2.378-4.241c0.039-0.038,0.076-0.053,0.115-0.042c0.038,0.01,0.057,0.042,0.057,0.1
		c0.039,0.229,0.071,0.549,0.1,0.96c0.028,0.411,0.072,0.884,0.13,1.418c0.058,0.708,0.129,1.481,0.214,2.321
		c0.086,0.84,0.177,1.701,0.271,2.579c0.095,0.878,0.19,1.734,0.287,2.564c0.086,0.762,0.188,1.521,0.301,2.278
		c0.104,0.688,0.205,1.267,0.302,1.733c0.095,0.469,0.19,0.76,0.286,0.873c0.21,0.307,0.411,0.502,0.603,0.588
		c0.189,0.086,0.42,0.147,0.688,0.188c0.135,0.038,0.272,0.062,0.415,0.07c0.144,0.011,0.291,0.053,0.444,0.129L116.194,159.146
		L116.194,159.146z M125.384,157.701c-0.059,0.424-0.117,0.849-0.172,1.273c0,0.057-0.039,0.086-0.115,0.086l-0.029,0.028
		c-0.152,0.058-0.276,0.086-0.372,0.086c-0.439,0-0.884-0.004-1.333-0.015c-0.443-0.01-0.888-0.014-1.332-0.014
		c-0.382,0-0.755-0.004-1.117-0.015c-0.372-0.009-0.745-0.015-1.117-0.015c-0.518,0-1.037,0.006-1.562,0.015
		c-0.525,0.011-1.046,0.024-1.561,0.042v-0.229c0.287,0,0.52-0.062,0.702-0.188c0.177-0.119,0.319-0.281,0.416-0.473
		c0.095-0.189,0.157-0.405,0.186-0.645c0.028-0.238,0.042-0.482,0.042-0.73v-11.92c0-0.382-0.091-0.629-0.271-0.745
		c-0.187-0.116-0.382-0.212-0.588-0.286l-0.388-0.129c-0.143-0.048-0.292-0.12-0.443-0.215c-0.039-0.038-0.054-0.082-0.043-0.128
		c0.009-0.047,0.043-0.072,0.1-0.072h8.167c0.079-0.039,0.16-0.072,0.244-0.1c0.085-0.029,0.167-0.062,0.243-0.1
		c0.096-0.038,0.144,0,0.144,0.115c-0.053,0.466-0.124,0.93-0.214,1.39c-0.086,0.429-0.177,0.864-0.271,1.303
		c-0.021,0.058-0.062,0.082-0.13,0.072c-0.066-0.01-0.101-0.043-0.101-0.1c-0.038-0.669-0.268-1.108-0.688-1.318
		c-0.42-0.211-0.937-0.315-1.547-0.315h-2.264v5.875h3.324c0.096,0,0.219-0.028,0.373-0.087c0.151-0.057,0.305-0.114,0.458-0.172
		c0.2-0.11,0.411-0.196,0.631-0.257c0.095-0.038,0.144,0,0.144,0.115c-0.02,0.229-0.043,0.478-0.071,0.746
		c-0.026,0.248-0.061,0.497-0.101,0.742c-0.04,0.238-0.067,0.479-0.086,0.718c-0.018,0.239-0.047,0.479-0.086,0.716
		c0,0.059-0.024,0.098-0.072,0.115c-0.048,0.02-0.09,0.01-0.129-0.027c-0.096-0.097-0.158-0.191-0.187-0.287
		c-0.031-0.105-0.065-0.209-0.101-0.314c-0.039-0.114-0.076-0.229-0.113-0.344c-0.039-0.115-0.105-0.219-0.201-0.315
		c-0.096-0.095-0.272-0.167-0.531-0.215c-0.275-0.05-0.552-0.089-0.831-0.114c-0.29-0.027-0.583-0.042-0.875-0.043h-1.518v5.902
		c0.286,0.422,0.691,0.74,1.218,0.962c0.525,0.219,1.036,0.329,1.533,0.329c0.668,0,1.235-0.176,1.705-0.529
		c0.468-0.354,0.777-0.855,0.932-1.506l0.229,0.059C125.52,156.848,125.444,157.271,125.384,157.701L125.384,157.701z
		 M142.857,149.1c-0.012,0.033-0.036,0.046-0.073,0.041c-0.04-0.005-0.059-0.025-0.059-0.058c0-0.361-0.098-0.616-0.296-0.764
		c-0.197-0.148-0.471-0.223-0.821-0.223c-0.153,0-0.299,0.009-0.437,0.025s-0.282,0.035-0.437,0.057
		c-0.108,0.022-0.229,0.039-0.36,0.049c-0.132,0.012-0.252,0.017-0.361,0.017v3.221h2.219c0.077,0,0.165-0.033,0.264-0.098
		c0.098-0.064,0.175-0.133,0.229-0.197c0.021-0.021,0.046-0.027,0.073-0.018c0.027,0.012,0.041,0.035,0.041,0.065
		c-0.041,0.591-0.118,1.179-0.229,1.759c-0.012,0.035-0.036,0.047-0.073,0.041c-0.039-0.004-0.059-0.023-0.059-0.058
		c0.011-0.362-0.08-0.61-0.271-0.749c-0.192-0.137-0.463-0.204-0.814-0.204h-1.38v3.287c0,0.132,0.027,0.271,0.082,0.412
		c0.055,0.144,0.132,0.269,0.23,0.378c0.098,0.109,0.213,0.195,0.345,0.264c0.132,0.064,0.273,0.098,0.427,0.098v0.133h-0.114
		c-0.121,0-0.235-0.008-0.345-0.016c-0.11-0.013-0.226-0.022-0.345-0.035c-0.115-0.01-0.23-0.019-0.346-0.022
		c-0.109-0.007-0.22-0.009-0.329-0.009s-0.22,0.005-0.329,0.016l-0.328,0.033c-0.251,0.021-0.504,0.032-0.756,0.033h-0.099
		c-0.033,0-0.052-0.02-0.058-0.059s0.008-0.062,0.041-0.074c0.196-0.032,0.35-0.072,0.46-0.123c0.109-0.049,0.188-0.114,0.238-0.197
		c0.049-0.081,0.075-0.186,0.082-0.312c0.005-0.125,0.008-0.287,0.008-0.483v-6.872c0-0.252-0.049-0.409-0.148-0.469
		c-0.106-0.062-0.224-0.11-0.345-0.14c-0.068-0.026-0.137-0.051-0.206-0.074c-0.09-0.031-0.175-0.072-0.254-0.123
		c-0.033-0.022-0.043-0.047-0.033-0.074c0.011-0.027,0.033-0.042,0.065-0.042c0.69,0.034,1.386,0.05,2.088,0.05h1.167
		c0.055,0,0.112,0.003,0.173,0.009c0.06,0.005,0.123,0.008,0.189,0.008c0.252,0.012,0.513,0.012,0.78,0
		c0.269-0.011,0.501-0.071,0.698-0.181c0.022-0.022,0.046-0.022,0.074,0c0.027,0.022,0.036,0.05,0.023,0.083L142.857,149.1
		L142.857,149.1z"/>
	<path fill="#FFFFFF" d="M232.546,141.009c-0.021,0.674-0.11,1.28-0.271,1.823c-0.02,0.061-0.06,0.091-0.12,0.091
		c-0.062,0-0.101-0.03-0.121-0.091c-0.101-0.502-0.257-0.909-0.468-1.219c-0.205-0.306-0.478-0.559-0.797-0.737
		c-0.322-0.181-0.684-0.306-1.085-0.377c-0.418-0.071-0.842-0.106-1.266-0.105h-76.416v17.59c0,0.804,0.256,1.486,0.769,2.049
		c0.512,0.562,1.148,0.904,1.912,1.023c0.062,0.021,0.085,0.065,0.075,0.135c-0.011,0.072-0.045,0.105-0.105,0.105
		c-0.707-0.061-1.415-0.109-2.123-0.15c-0.713-0.039-1.432-0.06-2.154-0.06c-0.522,0-1.039,0.017-1.551,0.045
		c-0.513,0.03-1.029,0.065-1.552,0.104c-0.061,0-0.095-0.034-0.104-0.104c-0.01-0.069,0.016-0.114,0.076-0.135
		c0.481-0.101,0.857-0.211,1.129-0.333c0.271-0.121,0.472-0.279,0.603-0.48s0.212-0.457,0.242-0.769s0.045-0.709,0.045-1.19v-17.802
		h-4.97c-0.644,0-1.211,0.226-1.702,0.678c-0.492,0.451-0.858,0.958-1.099,1.521c-0.04,0.06-0.086,0.085-0.137,0.075
		c-0.05-0.011-0.074-0.045-0.074-0.105c-0.04-0.201-0.062-0.381-0.062-0.543c0-0.401,0.05-0.792,0.15-1.174
		c0.156-0.591,0.328-1.178,0.513-1.762c0.06-0.19,0.11-0.376,0.15-0.557c0.039-0.12,0.1-0.141,0.18-0.06
		c0.422,0.261,0.833,0.427,1.234,0.497c0.402,0.07,0.864,0.105,1.387,0.105h85.845c0.161,0,0.335-0.025,0.527-0.075
		c0.189-0.05,0.365-0.095,0.526-0.136c0.114-0.022,0.229-0.042,0.348-0.06c0.129-0.02,0.266-0.04,0.404-0.061
		c0.062,0,0.093,0.041,0.093,0.121v0.241C232.575,139.755,232.565,140.383,232.546,141.009L232.546,141.009z"/>
	<path fill="#FFFFFF" d="M170.459,159.232c-1.002-0.06-2.005-0.086-3.009-0.088c-0.363,0-0.722,0.006-1.074,0.016
		c-0.354,0.011-0.724,0.023-1.104,0.042c-0.058,0-0.09-0.032-0.1-0.099c-0.011-0.066,0.015-0.11,0.072-0.131
		c0.591-0.172,0.974-0.4,1.146-0.687c0.173-0.287,0.257-0.735,0.257-1.349v-5.959h-8.796v6.018c0,1.203,0.62,1.861,1.861,1.979
		c0.059,0,0.087,0.037,0.087,0.114c0,0.075-0.028,0.114-0.087,0.114h-0.89c-0.268,0-0.553,0.01-0.857,0.027
		c-0.211,0-0.455,0.006-0.732,0.015c-0.275,0.011-0.521,0.015-0.729,0.015h-0.716c-0.249,0-0.497-0.011-0.745-0.029
		c-0.077,0-0.168-0.004-0.272-0.014c-0.091-0.009-0.182-0.013-0.271-0.014c-0.06,0-0.092-0.033-0.101-0.102
		c-0.011-0.065,0.015-0.108,0.071-0.127c0.305-0.06,0.553-0.121,0.743-0.188c0.19-0.065,0.336-0.161,0.431-0.286
		c0.096-0.123,0.157-0.281,0.188-0.473c0.027-0.191,0.042-0.439,0.042-0.746v-12.207c0-0.419-0.167-0.735-0.501-0.945
		c-0.335-0.209-0.692-0.325-1.074-0.343v-0.229c0.802,0.057,1.595,0.086,2.378,0.086c0.325,0,0.648-0.004,0.975-0.014
		c0.326-0.01,0.649-0.014,0.976-0.014h0.603c0.059,0,0.086,0.039,0.086,0.115c0,0.077-0.027,0.115-0.086,0.115
		c-0.345,0-0.655,0.104-0.932,0.315c-0.277,0.21-0.415,0.506-0.415,0.888v4.986h8.768v-4.872c0-0.459-0.119-0.75-0.356-0.874
		c-0.24-0.124-0.53-0.234-0.873-0.329c-0.073-0.018-0.146-0.038-0.216-0.058c-0.07-0.02-0.145-0.039-0.217-0.057
		c-0.057-0.021-0.08-0.062-0.069-0.129c0.01-0.067,0.042-0.1,0.1-0.1c1.273,0.081,2.551,0.104,3.825,0.072
		c0.392-0.011,0.778-0.024,1.16-0.043c0.059,0,0.092,0.034,0.102,0.101c0.009,0.066-0.014,0.11-0.07,0.128
		c-0.422,0.076-0.756,0.186-1.004,0.33c-0.249,0.144-0.371,0.454-0.371,0.931v11.749c0,0.65,0.143,1.138,0.429,1.462
		s0.754,0.545,1.404,0.658L170.459,159.232L170.459,159.232z M185.828,159.447c-0.343,0.084-0.693,0.128-1.047,0.129
		c-0.573,0-1.089-0.105-1.547-0.314c-0.459-0.211-0.87-0.478-1.232-0.803c-0.362-0.324-0.702-0.697-1.018-1.117
		c-0.314-0.42-0.614-0.851-0.901-1.289c-0.271-0.404-0.553-0.802-0.846-1.189c-0.298-0.391-0.62-0.744-0.975-1.061
		c-0.354-0.316-0.736-0.568-1.146-0.76c-0.412-0.189-0.874-0.286-1.392-0.286h-0.459c-0.134,0-0.275,0.019-0.431,0.058v4.07
		c0,0.553,0.167,1.025,0.502,1.418c0.335,0.391,0.778,0.614,1.332,0.674v0.229c-0.434-0.038-0.869-0.07-1.303-0.102
		c-0.436-0.027-0.869-0.043-1.306-0.043c-0.438,0-0.864,0.021-1.273,0.059c-0.411,0.039-0.835,0.087-1.274,0.145
		c-0.058,0.02-0.1-0.004-0.128-0.072c-0.03-0.066-0.015-0.119,0.041-0.156c0.401-0.191,0.737-0.479,1.005-0.861
		c0.268-0.381,0.4-0.791,0.4-1.23V145.51c0-0.44-0.158-0.826-0.474-1.161c-0.313-0.334-0.691-0.559-1.132-0.674
		c-0.057-0.02-0.083-0.062-0.072-0.128c0.012-0.067,0.042-0.101,0.102-0.101h5.646c0.592,0,1.175,0.072,1.747,0.215
		c0.574,0.144,1.079,0.368,1.521,0.674c0.438,0.306,0.792,0.707,1.06,1.204s0.401,1.089,0.401,1.776c0,0.917-0.254,1.787-0.76,2.607
		c-0.508,0.822-1.075,1.528-1.705,2.121c0.211,0.229,0.438,0.521,0.688,0.873c0.262,0.371,0.528,0.74,0.803,1.104
		c0.437,0.594,0.881,1.182,1.332,1.762c0.469,0.604,0.96,1.146,1.478,1.634c0.515,0.487,1.05,0.87,1.604,1.146
		c0.556,0.278,1.117,0.379,1.691,0.303l0.086,0.23C186.52,159.243,186.178,159.363,185.828,159.447z M179.38,146.883
		c-0.144-0.497-0.357-0.946-0.645-1.347c-0.282-0.397-0.645-0.734-1.062-0.989c-0.419-0.257-0.906-0.387-1.462-0.387
		c-0.229,0-0.457,0.014-0.687,0.042c-0.229,0.028-0.45,0.092-0.658,0.187v7.134c0.324,0.058,0.64,0.097,0.944,0.115
		c0.314,0.02,0.629,0.029,0.944,0.028c1.07,0,1.811-0.291,2.222-0.874c0.411-0.582,0.616-1.39,0.616-2.421
		C179.596,147.876,179.523,147.379,179.38,146.883L179.38,146.883z M200.382,154.891c-0.449,0.947-1.046,1.764-1.791,2.451
		c-0.744,0.688-1.608,1.223-2.593,1.604c-0.984,0.385-2.021,0.576-3.108,0.576c-0.898,0-1.831-0.221-2.795-0.66
		c-0.964-0.438-1.857-1.018-2.65-1.721c-0.802-0.705-1.466-1.509-1.991-2.404c-0.525-0.898-0.788-1.807-0.788-2.725
		c0-1.394,0.128-2.593,0.387-3.595c0.258-1.004,0.674-1.853,1.246-2.551c0.574-0.698,1.327-1.271,2.265-1.719
		c0.937-0.449,2.081-0.817,3.438-1.104l0.374-0.029c1.222-0.095,2.358,0.082,3.409,0.531c1.051,0.449,1.968,1.08,2.752,1.891
		c0.781,0.812,1.397,1.772,1.848,2.879c0.447,1.108,0.673,2.272,0.673,3.496C201.056,152.919,200.831,153.945,200.382,154.891
		L200.382,154.891z M192.604,143.96c-0.239,0.004-0.478,0.02-0.715,0.048v14.467c0.231,0.049,0.47,0.084,0.715,0.104V143.96z
		 M194.311,158.504c0.511-0.09,0.982-0.244,1.416-0.46c0.744-0.372,1.37-0.87,1.876-1.489c0.506-0.621,0.89-1.343,1.146-2.164
		c0.257-0.82,0.387-1.689,0.387-2.607c0-0.938-0.139-1.871-0.415-2.808c-0.276-0.936-0.688-1.777-1.232-2.522
		c-0.544-0.744-1.213-1.347-2.006-1.805c-0.366-0.213-0.762-0.377-1.171-0.488L194.311,158.504L194.311,158.504z M193.813,144.049
		c-0.235-0.04-0.474-0.067-0.713-0.08v14.632h0.046c0.229,0,0.451-0.012,0.667-0.031V144.049L193.813,144.049z M191.397,144.085
		c-0.443,0.089-0.857,0.223-1.245,0.404c-0.755,0.354-1.391,0.841-1.905,1.461c-0.518,0.621-0.912,1.337-1.189,2.149
		s-0.415,1.676-0.415,2.592c0,0.955,0.146,1.902,0.43,2.838c0.287,0.937,0.712,1.779,1.275,2.535
		c0.563,0.754,1.246,1.365,2.049,1.834c0.316,0.185,0.653,0.334,1.002,0.443L191.397,144.085L191.397,144.085z M218.054,143.773
		c-0.01-0.01-0.033-0.004-0.07,0.014c-0.286,0.083-0.568,0.178-0.846,0.287c-0.297,0.114-0.444,0.314-0.444,0.603l0.03,6.906v1.175
		c0,1.095-0.021,2.188-0.059,3.281c-0.038,1.085-0.105,2.169-0.2,3.252c0,0.039-0.024,0.071-0.072,0.101
		c-0.047,0.027-0.091,0.024-0.129-0.015c-0.917-0.782-1.834-1.628-2.751-2.536c-0.92-0.908-1.822-1.835-2.708-2.779
		c-0.887-0.941-1.76-1.897-2.622-2.865c-0.831-0.931-1.651-1.873-2.463-2.821c-0.249-0.264-0.487-0.537-0.716-0.817
		c-0.23-0.28-0.47-0.553-0.717-0.816c-0.058,0.495-0.085,0.992-0.086,1.489c0,0.727,0.009,1.452,0.028,2.178
		c0.019,0.727,0.046,1.451,0.085,2.178c0.077,1.459,0.115,2.921,0.114,4.383c0,0.324,0.029,0.588,0.086,0.788
		c0.058,0.201,0.129,0.358,0.215,0.474c0.087,0.115,0.191,0.197,0.315,0.244s0.254,0.082,0.387,0.1
		c0.153,0.037,0.307,0.082,0.459,0.13c0.153,0.047,0.334,0.147,0.545,0.3c0.039,0.039,0.052,0.081,0.042,0.131
		c-0.01,0.047-0.042,0.07-0.1,0.07c-0.191-0.02-0.378-0.039-0.56-0.059c-0.182-0.019-0.367-0.039-0.56-0.059
		c-0.271-0.037-0.543-0.066-0.815-0.086c-0.272-0.018-0.545-0.027-0.817-0.027c-0.354,0-0.709,0.023-1.061,0.071
		c-0.362,0.048-0.728,0.101-1.089,0.156c-0.058,0.021-0.101,0-0.128-0.058c-0.029-0.059-0.024-0.104,0.013-0.144
		c0.152-0.134,0.291-0.237,0.415-0.313c0.117-0.072,0.236-0.141,0.359-0.201c0.229-0.114,0.434-0.272,0.615-0.473
		c0.181-0.201,0.271-0.521,0.271-0.961v-13.41l0.229-0.459c0.019-0.038,0.048-0.066,0.086-0.085s0.066-0.01,0.087,0.028
		c2.033,2.107,4.05,4.233,6.045,6.375c1.997,2.145,3.976,4.311,5.933,6.488v-0.084c0-0.879-0.006-1.748-0.015-2.608
		c-0.009-0.858-0.024-1.737-0.042-2.636c-0.02-0.821-0.039-1.695-0.058-2.622c-0.02-0.926-0.028-1.801-0.028-2.622
		c0-0.325-0.034-0.587-0.101-0.788c-0.067-0.201-0.157-0.354-0.272-0.459c-0.114-0.104-0.239-0.176-0.372-0.214
		c-0.132-0.038-0.266-0.067-0.401-0.087c-0.141-0.016-0.278-0.04-0.414-0.071c-0.127-0.029-0.24-0.094-0.33-0.187
		c-0.038-0.038-0.043-0.086-0.015-0.144c0.028-0.057,0.062-0.076,0.102-0.057c0.438,0.057,0.849,0.086,1.23,0.086h1.204
		c0.248,0,0.501-0.005,0.76-0.015c0.263-0.009,0.524-0.004,0.788,0.015c0.097,0,0.2,0.004,0.315,0.014
		c0.104,0.01,0.209,0.014,0.313,0.015l0.06,0.229C218.088,143.778,218.064,143.784,218.054,143.773L218.054,143.773z
		 M228.903,157.701c-0.059,0.424-0.115,0.849-0.172,1.273c0,0.057-0.039,0.086-0.114,0.086l-0.028,0.028
		c-0.152,0.058-0.277,0.086-0.372,0.086c-0.439,0-0.884-0.004-1.333-0.015c-0.444-0.01-0.888-0.014-1.332-0.014
		c-0.382,0-0.754-0.004-1.117-0.015c-0.372-0.009-0.744-0.015-1.117-0.015c-0.516,0-1.036,0.006-1.562,0.015
		c-0.525,0.011-1.046,0.024-1.562,0.042v-0.229c0.286,0,0.521-0.062,0.702-0.188c0.177-0.119,0.32-0.281,0.415-0.473
		c0.096-0.189,0.158-0.405,0.188-0.645c0.028-0.238,0.044-0.482,0.044-0.73v-11.92c0-0.382-0.092-0.629-0.272-0.745
		c-0.187-0.116-0.384-0.212-0.588-0.286l-0.388-0.129c-0.145-0.048-0.29-0.12-0.443-0.215c-0.039-0.038-0.053-0.082-0.043-0.128
		c0.01-0.047,0.043-0.072,0.102-0.072h8.166c0.076-0.038,0.157-0.071,0.243-0.1c0.084-0.027,0.164-0.061,0.243-0.1
		c0.096-0.038,0.146,0,0.146,0.115c-0.055,0.466-0.126,0.93-0.217,1.39c-0.087,0.429-0.178,0.864-0.271,1.303
		c-0.021,0.058-0.063,0.082-0.129,0.072c-0.067-0.01-0.101-0.043-0.101-0.1c-0.038-0.669-0.268-1.108-0.688-1.318
		c-0.421-0.211-0.938-0.315-1.548-0.315h-2.265v5.875h3.325c0.094,0,0.221-0.028,0.371-0.087l0.46-0.172
		c0.198-0.11,0.41-0.196,0.629-0.257c0.097-0.038,0.144,0,0.144,0.115c-0.019,0.229-0.041,0.478-0.07,0.746
		c-0.026,0.248-0.06,0.497-0.1,0.742c-0.041,0.238-0.068,0.479-0.087,0.718s-0.048,0.479-0.087,0.716
		c0,0.059-0.023,0.098-0.071,0.115c-0.048,0.021-0.091,0.01-0.128-0.027c-0.097-0.097-0.157-0.191-0.188-0.287
		c-0.032-0.104-0.065-0.209-0.1-0.314c-0.039-0.114-0.077-0.229-0.115-0.344s-0.104-0.219-0.2-0.315
		c-0.097-0.095-0.271-0.167-0.53-0.215c-0.273-0.05-0.552-0.089-0.829-0.114c-0.291-0.027-0.583-0.042-0.875-0.043h-1.519v5.902
		c0.286,0.422,0.691,0.74,1.218,0.962c0.524,0.219,1.036,0.329,1.533,0.329c0.668,0,1.236-0.176,1.705-0.529
		c0.467-0.354,0.777-0.855,0.931-1.506l0.229,0.059C229.04,156.848,228.964,157.271,228.903,157.701L228.903,157.701z
		 M239.475,156.854c-0.354,0.555-0.803,1.028-1.348,1.42s-1.146,0.697-1.807,0.916c-0.658,0.221-1.284,0.332-1.877,0.332
		c-0.285,0-0.587-0.035-0.9-0.102c-0.316-0.066-0.604-0.177-0.861-0.33c-0.257-0.152-0.468-0.35-0.629-0.588
		c-0.163-0.238-0.244-0.54-0.244-0.9c0-0.23,0.024-0.461,0.071-0.688s0.091-0.448,0.129-0.659l0.144-0.688
		c0-0.057,0.038-0.086,0.114-0.086s0.115,0.029,0.115,0.086v0.431c0,0.399,0.087,0.755,0.257,1.06
		c0.169,0.303,0.394,0.568,0.659,0.789c0.268,0.221,0.578,0.381,0.932,0.486c0.354,0.104,0.711,0.156,1.075,0.156
		c0.344,0,0.697-0.057,1.06-0.17c0.355-0.112,0.689-0.281,0.989-0.502c0.294-0.219,0.541-0.49,0.729-0.803
		c0.19-0.314,0.287-0.664,0.287-1.047c0-0.361-0.086-0.721-0.259-1.074c-0.172-0.354-0.399-0.711-0.688-1.074
		c-0.303-0.381-0.629-0.746-0.974-1.088c-0.368-0.367-0.74-0.73-1.118-1.09c-0.402-0.386-0.806-0.771-1.202-1.161
		c-0.402-0.391-0.755-0.792-1.062-1.203c-0.305-0.411-0.554-0.826-0.743-1.247c-0.191-0.42-0.286-0.849-0.286-1.289
		c0-0.649,0.182-1.208,0.545-1.676c0.361-0.468,0.812-0.85,1.347-1.146c0.534-0.296,1.116-0.516,1.748-0.658
		c0.63-0.144,1.213-0.215,1.749-0.215c0.764,0,1.461,0.096,2.092,0.287c0.059,0.039,0.086,0.076,0.086,0.115
		c-0.08,0.969-0.194,1.934-0.344,2.894c-0.019,0.057-0.058,0.086-0.114,0.086c-0.058,0-0.097-0.029-0.114-0.086
		c-0.153-0.668-0.443-1.242-0.874-1.72c-0.431-0.477-0.999-0.716-1.705-0.716c-0.727,0-1.332,0.234-1.819,0.702
		c-0.487,0.468-0.73,1.065-0.73,1.791c0,0.382,0.08,0.736,0.243,1.06c0.162,0.325,0.373,0.64,0.631,0.946
		c0.258,0.306,0.56,0.606,0.902,0.902c0.353,0.304,0.705,0.604,1.06,0.903c0.405,0.329,0.803,0.668,1.189,1.017
		c0.38,0.342,0.73,0.715,1.046,1.117c0.3,0.385,0.55,0.803,0.746,1.246c0.189,0.439,0.285,0.917,0.285,1.434
		C240.004,155.689,239.827,156.3,239.475,156.854L239.475,156.854z M137.304,154.171c-0.254,0.538-0.594,1.002-1.018,1.394
		c-0.425,0.391-0.915,0.693-1.475,0.912c-0.559,0.217-1.147,0.324-1.768,0.324c-0.51,0-1.039-0.123-1.587-0.373
		s-1.057-0.578-1.506-0.979c-0.456-0.4-0.833-0.857-1.132-1.367c-0.299-0.512-0.447-1.025-0.447-1.547
		c0-0.793,0.073-1.475,0.221-2.044c0.146-0.57,0.382-1.053,0.708-1.45c0.326-0.396,0.754-0.721,1.286-0.977
		c0.532-0.255,1.184-0.464,1.955-0.627l0.212-0.016c0.694-0.054,1.341,0.045,1.938,0.301c0.588,0.25,1.12,0.615,1.563,1.075
		c0.445,0.462,0.795,1.007,1.05,1.637c0.255,0.628,0.382,1.291,0.382,1.987C137.688,153.051,137.56,153.635,137.304,154.171
		L137.304,154.171z M132.884,147.96c-0.139,0.002-0.274,0.011-0.406,0.026v8.223c0.131,0.027,0.268,0.047,0.405,0.061
		L132.884,147.96z M133.854,156.225c0.28-0.047,0.551-0.136,0.806-0.262c0.424-0.213,0.778-0.494,1.065-0.846
		c0.289-0.354,0.505-0.764,0.652-1.23c0.146-0.466,0.22-0.961,0.22-1.482c0-0.53-0.079-1.062-0.235-1.594
		c-0.157-0.533-0.391-1.01-0.7-1.434c-0.305-0.419-0.692-0.769-1.141-1.027c-0.208-0.121-0.432-0.213-0.666-0.277L133.854,156.225
		L133.854,156.225z M133.572,148.009c-0.134-0.022-0.27-0.038-0.404-0.045v8.315h0.025c0.13,0,0.257-0.006,0.379-0.016V148.009z
		 M132.198,148.03c-0.243,0.047-0.481,0.125-0.707,0.229c-0.43,0.201-0.79,0.478-1.083,0.831c-0.294,0.353-0.52,0.76-0.677,1.221
		c-0.157,0.46-0.236,0.953-0.236,1.473c0,0.543,0.082,1.081,0.243,1.612c0.163,0.531,0.404,1.014,0.726,1.44
		c0.313,0.423,0.709,0.776,1.165,1.042c0.18,0.105,0.371,0.189,0.57,0.253L132.198,148.03L132.198,148.03z"/>
</g>
</svg>
